<svg xmlns="http://www.w3.org/2000/svg" xmlns:dc="http://purl.org/dc/elements/1.1/" xmlns:ns2="http://creativecommons.org/ns#" xmlns:rdf="http://www.w3.org/1999/02/22-rdf-syntax-ns#" xmlns:xlink="http://www.w3.org/1999/xlink" width="360.0" height="295.0" viewBox="0.0 0.0 360.0 295.0">
<g id="graph0" class="graph" transform="scale(1.0 1.0) rotate(0) translate(4 291)">
<title>G</title>
<polygon fill="white" stroke="none" points="-4,4 -4,-291 356,-291 356,4 -4,4" />
<g id="clust4" class="cluster">
<title>cluster_legend</title>
</g>

<g id="node1" class="node">
<title>node1</title>
<svg width="154px" height="48px" viewBox="0 0 206.41 64.295625" version="1.1" preserveAspectRatio="xMinYMin meet" x="18" y="-154.5">
 <metadata>
  <rdf:RDF>
   <ns2:Work>
    <dc:type rdf:resource="http://purl.org/dc/dcmitype/StillImage" />
    <dc:date>2024-10-28T18:56:53.215799</dc:date>
    <dc:format>image/svg+xml</dc:format>
    <dc:creator>
     <ns2:Agent>
      <dc:title>Matplotlib v3.9.2, https://matplotlib.org/</dc:title>
     </ns2:Agent>
    </dc:creator>
   </ns2:Work>
  </rdf:RDF>
 </metadata>
 <defs>
  <style type="text/css">*{stroke-linejoin: round; stroke-linecap: butt}</style>
 </defs>
 <g id="figure_1">
  <g id="patch_1">
   <path d="M 0 64.295625  L 206.41 64.295625  L 206.41 -0  L 0 -0  z " style="fill: #ffffff" />
  </g>
  <g id="axes_1">
   <g id="patch_2">
    <path d="M 22.27 29.439375  L 206.41 29.439375  L 206.41 1.719375  L 22.27 1.719375  z " style="fill: #ffffff" />
   </g>
   <g id="patch_3">
    <path d="M 38.282174 29.439375  L 46.288261 29.439375  L 46.288261 28.889375  L 38.282174 28.889375  z " clip-path="url(#pe74c3a62e3)" style="fill: #fefebb; stroke: #444443; stroke-width: 0.5; stroke-linejoin: miter" />
   </g>
   <g id="patch_4">
    <path d="M 46.288261 29.439375  L 54.294348 29.439375  L 54.294348 29.439375  L 46.288261 29.439375  z " clip-path="url(#pe74c3a62e3)" style="fill: #fefebb; stroke: #444443; stroke-width: 0.5; stroke-linejoin: miter" />
   </g>
   <g id="patch_5">
    <path d="M 54.294348 29.439375  L 62.300435 29.439375  L 62.300435 29.439375  L 54.294348 29.439375  z " clip-path="url(#pe74c3a62e3)" style="fill: #fefebb; stroke: #444443; stroke-width: 0.5; stroke-linejoin: miter" />
   </g>
   <g id="patch_6">
    <path d="M 62.300435 29.439375  L 70.306522 29.439375  L 70.306522 29.439375  L 62.300435 29.439375  z " clip-path="url(#pe74c3a62e3)" style="fill: #fefebb; stroke: #444443; stroke-width: 0.5; stroke-linejoin: miter" />
   </g>
   <g id="patch_7">
    <path d="M 70.306522 29.439375  L 78.312609 29.439375  L 78.312609 29.439375  L 70.306522 29.439375  z " clip-path="url(#pe74c3a62e3)" style="fill: #fefebb; stroke: #444443; stroke-width: 0.5; stroke-linejoin: miter" />
   </g>
   <g id="patch_8">
    <path d="M 78.312609 29.439375  L 86.318696 29.439375  L 86.318696 29.439375  L 78.312609 29.439375  z " clip-path="url(#pe74c3a62e3)" style="fill: #fefebb; stroke: #444443; stroke-width: 0.5; stroke-linejoin: miter" />
   </g>
   <g id="patch_9">
    <path d="M 86.318696 29.439375  L 94.324783 29.439375  L 94.324783 29.439375  L 86.318696 29.439375  z " clip-path="url(#pe74c3a62e3)" style="fill: #fefebb; stroke: #444443; stroke-width: 0.5; stroke-linejoin: miter" />
   </g>
   <g id="patch_10">
    <path d="M 94.324783 29.439375  L 102.33087 29.439375  L 102.33087 29.439375  L 94.324783 29.439375  z " clip-path="url(#pe74c3a62e3)" style="fill: #fefebb; stroke: #444443; stroke-width: 0.5; stroke-linejoin: miter" />
   </g>
   <g id="patch_11">
    <path d="M 102.33087 29.439375  L 110.336957 29.439375  L 110.336957 29.439375  L 102.33087 29.439375  z " clip-path="url(#pe74c3a62e3)" style="fill: #fefebb; stroke: #444443; stroke-width: 0.5; stroke-linejoin: miter" />
   </g>
   <g id="patch_12">
    <path d="M 110.336957 29.439375  L 118.343043 29.439375  L 118.343043 28.339375  L 110.336957 28.339375  z " clip-path="url(#pe74c3a62e3)" style="fill: #fefebb; stroke: #444443; stroke-width: 0.5; stroke-linejoin: miter" />
   </g>
   <g id="patch_13">
    <path d="M 118.343043 29.439375  L 126.34913 29.439375  L 126.34913 29.439375  L 118.343043 29.439375  z " clip-path="url(#pe74c3a62e3)" style="fill: #fefebb; stroke: #444443; stroke-width: 0.5; stroke-linejoin: miter" />
   </g>
   <g id="patch_14">
    <path d="M 126.34913 29.439375  L 134.355217 29.439375  L 134.355217 29.439375  L 126.34913 29.439375  z " clip-path="url(#pe74c3a62e3)" style="fill: #fefebb; stroke: #444443; stroke-width: 0.5; stroke-linejoin: miter" />
   </g>
   <g id="patch_15">
    <path d="M 134.355217 29.439375  L 142.361304 29.439375  L 142.361304 29.439375  L 134.355217 29.439375  z " clip-path="url(#pe74c3a62e3)" style="fill: #fefebb; stroke: #444443; stroke-width: 0.5; stroke-linejoin: miter" />
   </g>
   <g id="patch_16">
    <path d="M 142.361304 29.439375  L 150.367391 29.439375  L 150.367391 29.439375  L 142.361304 29.439375  z " clip-path="url(#pe74c3a62e3)" style="fill: #fefebb; stroke: #444443; stroke-width: 0.5; stroke-linejoin: miter" />
   </g>
   <g id="patch_17">
    <path d="M 150.367391 29.439375  L 158.373478 29.439375  L 158.373478 29.439375  L 150.367391 29.439375  z " clip-path="url(#pe74c3a62e3)" style="fill: #fefebb; stroke: #444443; stroke-width: 0.5; stroke-linejoin: miter" />
   </g>
   <g id="patch_18">
    <path d="M 158.373478 29.439375  L 166.379565 29.439375  L 166.379565 29.439375  L 158.373478 29.439375  z " clip-path="url(#pe74c3a62e3)" style="fill: #fefebb; stroke: #444443; stroke-width: 0.5; stroke-linejoin: miter" />
   </g>
   <g id="patch_19">
    <path d="M 166.379565 29.439375  L 174.385652 29.439375  L 174.385652 29.439375  L 166.379565 29.439375  z " clip-path="url(#pe74c3a62e3)" style="fill: #fefebb; stroke: #444443; stroke-width: 0.5; stroke-linejoin: miter" />
   </g>
   <g id="patch_20">
    <path d="M 174.385652 29.439375  L 182.391739 29.439375  L 182.391739 29.439375  L 174.385652 29.439375  z " clip-path="url(#pe74c3a62e3)" style="fill: #fefebb; stroke: #444443; stroke-width: 0.5; stroke-linejoin: miter" />
   </g>
   <g id="patch_21">
    <path d="M 182.391739 29.439375  L 190.397826 29.439375  L 190.397826 16.239375  L 182.391739 16.239375  z " clip-path="url(#pe74c3a62e3)" style="fill: #fefebb; stroke: #444443; stroke-width: 0.5; stroke-linejoin: miter" />
   </g>
   <g id="patch_22">
    <path d="M 38.282174 28.889375  L 46.288261 28.889375  L 46.288261 12.206042  L 38.282174 12.206042  z " clip-path="url(#pe74c3a62e3)" style="fill: #a1dab4; stroke: #444443; stroke-width: 0.5; stroke-linejoin: miter" />
   </g>
   <g id="patch_23">
    <path d="M 46.288261 29.439375  L 54.294348 29.439375  L 54.294348 29.439375  L 46.288261 29.439375  z " clip-path="url(#pe74c3a62e3)" style="fill: #a1dab4; stroke: #444443; stroke-width: 0.5; stroke-linejoin: miter" />
   </g>
   <g id="patch_24">
    <path d="M 54.294348 29.439375  L 62.300435 29.439375  L 62.300435 29.439375  L 54.294348 29.439375  z " clip-path="url(#pe74c3a62e3)" style="fill: #a1dab4; stroke: #444443; stroke-width: 0.5; stroke-linejoin: miter" />
   </g>
   <g id="patch_25">
    <path d="M 62.300435 29.439375  L 70.306522 29.439375  L 70.306522 29.439375  L 62.300435 29.439375  z " clip-path="url(#pe74c3a62e3)" style="fill: #a1dab4; stroke: #444443; stroke-width: 0.5; stroke-linejoin: miter" />
   </g>
   <g id="patch_26">
    <path d="M 70.306522 29.439375  L 78.312609 29.439375  L 78.312609 29.439375  L 70.306522 29.439375  z " clip-path="url(#pe74c3a62e3)" style="fill: #a1dab4; stroke: #444443; stroke-width: 0.5; stroke-linejoin: miter" />
   </g>
   <g id="patch_27">
    <path d="M 78.312609 29.439375  L 86.318696 29.439375  L 86.318696 29.439375  L 78.312609 29.439375  z " clip-path="url(#pe74c3a62e3)" style="fill: #a1dab4; stroke: #444443; stroke-width: 0.5; stroke-linejoin: miter" />
   </g>
   <g id="patch_28">
    <path d="M 86.318696 29.439375  L 94.324783 29.439375  L 94.324783 29.439375  L 86.318696 29.439375  z " clip-path="url(#pe74c3a62e3)" style="fill: #a1dab4; stroke: #444443; stroke-width: 0.5; stroke-linejoin: miter" />
   </g>
   <g id="patch_29">
    <path d="M 94.324783 29.439375  L 102.33087 29.439375  L 102.33087 29.439375  L 94.324783 29.439375  z " clip-path="url(#pe74c3a62e3)" style="fill: #a1dab4; stroke: #444443; stroke-width: 0.5; stroke-linejoin: miter" />
   </g>
   <g id="patch_30">
    <path d="M 102.33087 29.439375  L 110.336957 29.439375  L 110.336957 29.439375  L 102.33087 29.439375  z " clip-path="url(#pe74c3a62e3)" style="fill: #a1dab4; stroke: #444443; stroke-width: 0.5; stroke-linejoin: miter" />
   </g>
   <g id="patch_31">
    <path d="M 110.336957 28.339375  L 118.343043 28.339375  L 118.343043 15.506042  L 110.336957 15.506042  z " clip-path="url(#pe74c3a62e3)" style="fill: #a1dab4; stroke: #444443; stroke-width: 0.5; stroke-linejoin: miter" />
   </g>
   <g id="patch_32">
    <path d="M 118.343043 29.439375  L 126.34913 29.439375  L 126.34913 29.439375  L 118.343043 29.439375  z " clip-path="url(#pe74c3a62e3)" style="fill: #a1dab4; stroke: #444443; stroke-width: 0.5; stroke-linejoin: miter" />
   </g>
   <g id="patch_33">
    <path d="M 126.34913 29.439375  L 134.355217 29.439375  L 134.355217 29.439375  L 126.34913 29.439375  z " clip-path="url(#pe74c3a62e3)" style="fill: #a1dab4; stroke: #444443; stroke-width: 0.5; stroke-linejoin: miter" />
   </g>
   <g id="patch_34">
    <path d="M 134.355217 29.439375  L 142.361304 29.439375  L 142.361304 29.439375  L 134.355217 29.439375  z " clip-path="url(#pe74c3a62e3)" style="fill: #a1dab4; stroke: #444443; stroke-width: 0.5; stroke-linejoin: miter" />
   </g>
   <g id="patch_35">
    <path d="M 142.361304 29.439375  L 150.367391 29.439375  L 150.367391 29.439375  L 142.361304 29.439375  z " clip-path="url(#pe74c3a62e3)" style="fill: #a1dab4; stroke: #444443; stroke-width: 0.5; stroke-linejoin: miter" />
   </g>
   <g id="patch_36">
    <path d="M 150.367391 29.439375  L 158.373478 29.439375  L 158.373478 29.439375  L 150.367391 29.439375  z " clip-path="url(#pe74c3a62e3)" style="fill: #a1dab4; stroke: #444443; stroke-width: 0.5; stroke-linejoin: miter" />
   </g>
   <g id="patch_37">
    <path d="M 158.373478 29.439375  L 166.379565 29.439375  L 166.379565 29.439375  L 158.373478 29.439375  z " clip-path="url(#pe74c3a62e3)" style="fill: #a1dab4; stroke: #444443; stroke-width: 0.5; stroke-linejoin: miter" />
   </g>
   <g id="patch_38">
    <path d="M 166.379565 29.439375  L 174.385652 29.439375  L 174.385652 29.439375  L 166.379565 29.439375  z " clip-path="url(#pe74c3a62e3)" style="fill: #a1dab4; stroke: #444443; stroke-width: 0.5; stroke-linejoin: miter" />
   </g>
   <g id="patch_39">
    <path d="M 174.385652 29.439375  L 182.391739 29.439375  L 182.391739 29.439375  L 174.385652 29.439375  z " clip-path="url(#pe74c3a62e3)" style="fill: #a1dab4; stroke: #444443; stroke-width: 0.5; stroke-linejoin: miter" />
   </g>
   <g id="patch_40">
    <path d="M 182.391739 16.239375  L 190.397826 16.239375  L 190.397826 3.039375  L 182.391739 3.039375  z " clip-path="url(#pe74c3a62e3)" style="fill: #a1dab4; stroke: #444443; stroke-width: 0.5; stroke-linejoin: miter" />
   </g>
   <g id="patch_41">
    <path d="M 152.368913 30.270975  L 149.054393 38.586975  L 155.683433 38.586975  z " style="fill: #444443" />
   </g>
   <g id="matplotlib.axis_1">
    <g id="xtick_1">
     <g id="line2d_1">
      <defs>
       <path id="me3c0476ee0" d="M 0 0  L 0 3.5  " style="stroke: #000000; stroke-width: 0.3" />
      </defs>
      <g>
       <use xlink:href="#me3c0476ee0" x="38.282174" y="29.439375" style="stroke: #000000; stroke-width: 0.3" />
      </g>
     </g>
     <g id="text_1">
      
      <g style="fill: #444443" transform="translate(31.920924 47.018125) scale(0.08 -0.08)">
       <defs>
        <path id="DejaVuSans-31" d="M 794 531  L 1825 531  L 1825 4091  L 703 3866  L 703 4441  L 1819 4666  L 2450 4666  L 2450 531  L 3481 531  L 3481 0  L 794 0  L 794 531  z " transform="scale(0.015625)" />
        <path id="DejaVuSans-2e" d="M 684 794  L 1344 794  L 1344 0  L 684 0  L 684 794  z " transform="scale(0.015625)" />
        <path id="DejaVuSans-30" d="M 2034 4250  Q 1547 4250 1301 3770  Q 1056 3291 1056 2328  Q 1056 1369 1301 889  Q 1547 409 2034 409  Q 2525 409 2770 889  Q 3016 1369 3016 2328  Q 3016 3291 2770 3770  Q 2525 4250 2034 4250  z M 2034 4750  Q 2819 4750 3233 4129  Q 3647 3509 3647 2328  Q 3647 1150 3233 529  Q 2819 -91 2034 -91  Q 1250 -91 836 529  Q 422 1150 422 2328  Q 422 3509 836 4129  Q 1250 4750 2034 4750  z " transform="scale(0.015625)" />
       </defs>
       <use xlink:href="#DejaVuSans-31" />
       <use xlink:href="#DejaVuSans-2e" x="63.623047" />
       <use xlink:href="#DejaVuSans-30" x="95.410156" />
      </g>
     </g>
    </g>
    <g id="xtick_2">
     <g id="line2d_2">
      <g>
       <use xlink:href="#me3c0476ee0" x="152.368913" y="29.439375" style="stroke: #000000; stroke-width: 0.3" />
      </g>
     </g>
     <g id="text_2">
      
      <g style="fill: #444443" transform="translate(146.007663 47.018125) scale(0.08 -0.08)">
       <defs>
        <path id="DejaVuSans-32" d="M 1228 531  L 3431 531  L 3431 0  L 469 0  L 469 531  Q 828 903 1448 1529  Q 2069 2156 2228 2338  Q 2531 2678 2651 2914  Q 2772 3150 2772 3378  Q 2772 3750 2511 3984  Q 2250 4219 1831 4219  Q 1534 4219 1204 4116  Q 875 4013 500 3803  L 500 4441  Q 881 4594 1212 4672  Q 1544 4750 1819 4750  Q 2544 4750 2975 4387  Q 3406 4025 3406 3419  Q 3406 3131 3298 2873  Q 3191 2616 2906 2266  Q 2828 2175 2409 1742  Q 1991 1309 1228 531  z " transform="scale(0.015625)" />
        <path id="DejaVuSans-35" d="M 691 4666  L 3169 4666  L 3169 4134  L 1269 4134  L 1269 2991  Q 1406 3038 1543 3061  Q 1681 3084 1819 3084  Q 2600 3084 3056 2656  Q 3513 2228 3513 1497  Q 3513 744 3044 326  Q 2575 -91 1722 -91  Q 1428 -91 1123 -41  Q 819 9 494 109  L 494 744  Q 775 591 1075 516  Q 1375 441 1709 441  Q 2250 441 2565 725  Q 2881 1009 2881 1497  Q 2881 1984 2565 2268  Q 2250 2553 1709 2553  Q 1456 2553 1204 2497  Q 953 2441 691 2322  L 691 4666  z " transform="scale(0.015625)" />
       </defs>
       <use xlink:href="#DejaVuSans-32" />
       <use xlink:href="#DejaVuSans-2e" x="63.623047" />
       <use xlink:href="#DejaVuSans-35" x="95.410156" />
      </g>
     </g>
    </g>
    <g id="xtick_3">
     <g id="line2d_3">
      <g>
       <use xlink:href="#me3c0476ee0" x="190.397826" y="29.439375" style="stroke: #000000; stroke-width: 0.3" />
      </g>
     </g>
     <g id="text_3">
      
      <g style="fill: #444443" transform="translate(184.036576 47.018125) scale(0.08 -0.08)">
       <defs>
        <path id="DejaVuSans-33" d="M 2597 2516  Q 3050 2419 3304 2112  Q 3559 1806 3559 1356  Q 3559 666 3084 287  Q 2609 -91 1734 -91  Q 1441 -91 1130 -33  Q 819 25 488 141  L 488 750  Q 750 597 1062 519  Q 1375 441 1716 441  Q 2309 441 2620 675  Q 2931 909 2931 1356  Q 2931 1769 2642 2001  Q 2353 2234 1838 2234  L 1294 2234  L 1294 2753  L 1863 2753  Q 2328 2753 2575 2939  Q 2822 3125 2822 3475  Q 2822 3834 2567 4026  Q 2313 4219 1838 4219  Q 1578 4219 1281 4162  Q 984 4106 628 3988  L 628 4550  Q 988 4650 1302 4700  Q 1616 4750 1894 4750  Q 2613 4750 3031 4423  Q 3450 4097 3450 3541  Q 3450 3153 3228 2886  Q 3006 2619 2597 2516  z " transform="scale(0.015625)" />
       </defs>
       <use xlink:href="#DejaVuSans-33" />
       <use xlink:href="#DejaVuSans-2e" x="63.623047" />
       <use xlink:href="#DejaVuSans-30" x="95.410156" />
      </g>
     </g>
    </g>
    <g id="text_4">
     
     <g style="fill: #444443" transform="translate(95.828125 61.8) scale(0.12 -0.12)">
      <defs>
       <path id="DejaVuSans-50" d="M 1259 4147  L 1259 2394  L 2053 2394  Q 2494 2394 2734 2622  Q 2975 2850 2975 3272  Q 2975 3691 2734 3919  Q 2494 4147 2053 4147  L 1259 4147  z M 628 4666  L 2053 4666  Q 2838 4666 3239 4311  Q 3641 3956 3641 3272  Q 3641 2581 3239 2228  Q 2838 1875 2053 1875  L 1259 1875  L 1259 0  L 628 0  L 628 4666  z " transform="scale(0.015625)" />
       <path id="DejaVuSans-63" d="M 3122 3366  L 3122 2828  Q 2878 2963 2633 3030  Q 2388 3097 2138 3097  Q 1578 3097 1268 2742  Q 959 2388 959 1747  Q 959 1106 1268 751  Q 1578 397 2138 397  Q 2388 397 2633 464  Q 2878 531 3122 666  L 3122 134  Q 2881 22 2623 -34  Q 2366 -91 2075 -91  Q 1284 -91 818 406  Q 353 903 353 1747  Q 353 2603 823 3093  Q 1294 3584 2113 3584  Q 2378 3584 2631 3529  Q 2884 3475 3122 3366  z " transform="scale(0.015625)" />
       <path id="DejaVuSans-6c" d="M 603 4863  L 1178 4863  L 1178 0  L 603 0  L 603 4863  z " transform="scale(0.015625)" />
       <path id="DejaVuSans-61" d="M 2194 1759  Q 1497 1759 1228 1600  Q 959 1441 959 1056  Q 959 750 1161 570  Q 1363 391 1709 391  Q 2188 391 2477 730  Q 2766 1069 2766 1631  L 2766 1759  L 2194 1759  z M 3341 1997  L 3341 0  L 2766 0  L 2766 531  Q 2569 213 2275 61  Q 1981 -91 1556 -91  Q 1019 -91 701 211  Q 384 513 384 1019  Q 384 1609 779 1909  Q 1175 2209 1959 2209  L 2766 2209  L 2766 2266  Q 2766 2663 2505 2880  Q 2244 3097 1772 3097  Q 1472 3097 1187 3025  Q 903 2953 641 2809  L 641 3341  Q 956 3463 1253 3523  Q 1550 3584 1831 3584  Q 2591 3584 2966 3190  Q 3341 2797 3341 1997  z " transform="scale(0.015625)" />
       <path id="DejaVuSans-73" d="M 2834 3397  L 2834 2853  Q 2591 2978 2328 3040  Q 2066 3103 1784 3103  Q 1356 3103 1142 2972  Q 928 2841 928 2578  Q 928 2378 1081 2264  Q 1234 2150 1697 2047  L 1894 2003  Q 2506 1872 2764 1633  Q 3022 1394 3022 966  Q 3022 478 2636 193  Q 2250 -91 1575 -91  Q 1294 -91 989 -36  Q 684 19 347 128  L 347 722  Q 666 556 975 473  Q 1284 391 1588 391  Q 1994 391 2212 530  Q 2431 669 2431 922  Q 2431 1156 2273 1281  Q 2116 1406 1581 1522  L 1381 1569  Q 847 1681 609 1914  Q 372 2147 372 2553  Q 372 3047 722 3315  Q 1072 3584 1716 3584  Q 2034 3584 2315 3537  Q 2597 3491 2834 3397  z " transform="scale(0.015625)" />
      </defs>
      <use xlink:href="#DejaVuSans-50" />
      <use xlink:href="#DejaVuSans-63" x="60.302734" />
      <use xlink:href="#DejaVuSans-6c" x="115.283203" />
      <use xlink:href="#DejaVuSans-61" x="143.066406" />
      <use xlink:href="#DejaVuSans-73" x="204.345703" />
      <use xlink:href="#DejaVuSans-73" x="256.445312" />
     </g>
    </g>
   </g>
   <g id="matplotlib.axis_2">
    <g id="ytick_1">
     <g id="line2d_4">
      <defs>
       <path id="m97127b858d" d="M 0 0  L -3.5 0  " style="stroke: #000000; stroke-width: 0.3" />
      </defs>
      <g>
       <use xlink:href="#m97127b858d" x="22.27" y="29.439375" style="stroke: #000000; stroke-width: 0.3" />
      </g>
     </g>
     <g id="text_5">
      
      <g style="fill: #444443" transform="translate(10.18 32.47875) scale(0.08 -0.08)">
       <use xlink:href="#DejaVuSans-30" />
      </g>
     </g>
    </g>
    <g id="ytick_2">
     <g id="line2d_5">
      <g>
       <use xlink:href="#m97127b858d" x="22.27" y="3.039375" style="stroke: #000000; stroke-width: 0.3" />
      </g>
     </g>
     <g id="text_6">
      
      <g style="fill: #444443" transform="translate(0 6.07875) scale(0.08 -0.08)">
       <defs>
        <path id="DejaVuSans-34" d="M 2419 4116  L 825 1625  L 2419 1625  L 2419 4116  z M 2253 4666  L 3047 4666  L 3047 1625  L 3713 1625  L 3713 1100  L 3047 1100  L 3047 0  L 2419 0  L 2419 1100  L 313 1100  L 313 1709  L 2253 4666  z " transform="scale(0.015625)" />
       </defs>
       <use xlink:href="#DejaVuSans-31" />
       <use xlink:href="#DejaVuSans-34" x="63.623047" />
       <use xlink:href="#DejaVuSans-34" x="127.246094" />
      </g>
     </g>
    </g>
   </g>
   <g id="patch_42">
    <path d="M 22.27 29.439375  L 22.27 1.719375  " style="fill: none; stroke: #444443; stroke-width: 0.3; stroke-linejoin: miter; stroke-linecap: square" />
   </g>
   <g id="patch_43">
    <path d="M 22.27 29.439375  L 206.41 29.439375  " style="fill: none; stroke: #444443; stroke-width: 0.3; stroke-linejoin: miter; stroke-linecap: square" />
   </g>
  </g>
 </g>
 <defs>
  <clipPath id="pe74c3a62e3">
   <rect x="22.27" y="1.719375" width="184.14" height="27.72" />
  </clipPath>
 </defs>
</svg></g>

<g id="node2" class="node">
<title>node4</title>
<svg width="154px" height="51px" viewBox="0 0 206.41 68.563523" version="1.1" preserveAspectRatio="xMinYMin meet" x="194" y="-156">
 <metadata>
  <rdf:RDF>
   <ns2:Work>
    <dc:type rdf:resource="http://purl.org/dc/dcmitype/StillImage" />
    <dc:date>2024-10-28T18:56:53.377876</dc:date>
    <dc:format>image/svg+xml</dc:format>
    <dc:creator>
     <ns2:Agent>
      <dc:title>Matplotlib v3.9.2, https://matplotlib.org/</dc:title>
     </ns2:Agent>
    </dc:creator>
   </ns2:Work>
  </rdf:RDF>
 </metadata>
 <defs>
  <style type="text/css">*{stroke-linejoin: round; stroke-linecap: butt}</style>
 </defs>
 <g id="figure_1">
  <g id="patch_1">
   <path d="M 0 68.563523  L 206.41 68.563523  L 206.41 0  L 0 0  z " style="fill: #ffffff" />
  </g>
  <g id="axes_1">
   <g id="patch_2">
    <path d="M 22.27 33.707273  L 206.41 33.707273  L 206.41 1.50598  L 22.27 1.50598  z " style="fill: #ffffff" />
   </g>
   <g id="patch_3">
    <path d="M 38.282174 33.707273  L 46.288261 33.707273  L 46.288261 32.359234  L 38.282174 32.359234  z " clip-path="url(#p79dfca17f7)" style="fill: #fefebb; stroke: #444443; stroke-width: 0.5; stroke-linejoin: miter" />
   </g>
   <g id="patch_4">
    <path d="M 46.288261 33.707273  L 54.294348 33.707273  L 54.294348 33.201759  L 46.288261 33.201759  z " clip-path="url(#p79dfca17f7)" style="fill: #fefebb; stroke: #444443; stroke-width: 0.5; stroke-linejoin: miter" />
   </g>
   <g id="patch_5">
    <path d="M 54.294348 33.707273  L 62.300435 33.707273  L 62.300435 32.864749  L 54.294348 32.864749  z " clip-path="url(#p79dfca17f7)" style="fill: #fefebb; stroke: #444443; stroke-width: 0.5; stroke-linejoin: miter" />
   </g>
   <g id="patch_6">
    <path d="M 62.300435 33.707273  L 70.306522 33.707273  L 70.306522 30.50568  L 62.300435 30.50568  z " clip-path="url(#p79dfca17f7)" style="fill: #fefebb; stroke: #444443; stroke-width: 0.5; stroke-linejoin: miter" />
   </g>
   <g id="patch_7">
    <path d="M 70.306522 33.707273  L 78.312609 33.707273  L 78.312609 24.439502  L 70.306522 24.439502  z " clip-path="url(#p79dfca17f7)" style="fill: #fefebb; stroke: #444443; stroke-width: 0.5; stroke-linejoin: miter" />
   </g>
   <g id="patch_8">
    <path d="M 78.312609 33.707273  L 86.318696 33.707273  L 86.318696 24.945017  L 78.312609 24.945017  z " clip-path="url(#p79dfca17f7)" style="fill: #fefebb; stroke: #444443; stroke-width: 0.5; stroke-linejoin: miter" />
   </g>
   <g id="patch_9">
    <path d="M 86.318696 33.707273  L 94.324783 33.707273  L 94.324783 8.094523  L 86.318696 8.094523  z " clip-path="url(#p79dfca17f7)" style="fill: #fefebb; stroke: #444443; stroke-width: 0.5; stroke-linejoin: miter" />
   </g>
   <g id="patch_10">
    <path d="M 94.324783 33.707273  L 102.33087 33.707273  L 102.33087 27.135581  L 94.324783 27.135581  z " clip-path="url(#p79dfca17f7)" style="fill: #fefebb; stroke: #444443; stroke-width: 0.5; stroke-linejoin: miter" />
   </g>
   <g id="patch_11">
    <path d="M 102.33087 33.707273  L 110.336957 33.707273  L 110.336957 27.304086  L 102.33087 27.304086  z " clip-path="url(#p79dfca17f7)" style="fill: #fefebb; stroke: #444443; stroke-width: 0.5; stroke-linejoin: miter" />
   </g>
   <g id="patch_12">
    <path d="M 110.336957 33.707273  L 118.343043 33.707273  L 118.343043 29.663155  L 110.336957 29.663155  z " clip-path="url(#p79dfca17f7)" style="fill: #fefebb; stroke: #444443; stroke-width: 0.5; stroke-linejoin: miter" />
   </g>
   <g id="patch_13">
    <path d="M 118.343043 33.707273  L 126.34913 33.707273  L 126.34913 30.842689  L 118.343043 30.842689  z " clip-path="url(#p79dfca17f7)" style="fill: #fefebb; stroke: #444443; stroke-width: 0.5; stroke-linejoin: miter" />
   </g>
   <g id="patch_14">
    <path d="M 126.34913 33.707273  L 134.355217 33.707273  L 134.355217 31.179699  L 126.34913 31.179699  z " clip-path="url(#p79dfca17f7)" style="fill: #fefebb; stroke: #444443; stroke-width: 0.5; stroke-linejoin: miter" />
   </g>
   <g id="patch_15">
    <path d="M 134.355217 33.707273  L 142.361304 33.707273  L 142.361304 31.516709  L 134.355217 31.516709  z " clip-path="url(#p79dfca17f7)" style="fill: #fefebb; stroke: #444443; stroke-width: 0.5; stroke-linejoin: miter" />
   </g>
   <g id="patch_16">
    <path d="M 142.361304 33.707273  L 150.367391 33.707273  L 150.367391 32.190729  L 142.361304 32.190729  z " clip-path="url(#p79dfca17f7)" style="fill: #fefebb; stroke: #444443; stroke-width: 0.5; stroke-linejoin: miter" />
   </g>
   <g id="patch_17">
    <path d="M 150.367391 33.707273  L 158.373478 33.707273  L 158.373478 32.527739  L 150.367391 32.527739  z " clip-path="url(#p79dfca17f7)" style="fill: #fefebb; stroke: #444443; stroke-width: 0.5; stroke-linejoin: miter" />
   </g>
   <g id="patch_18">
    <path d="M 158.373478 33.707273  L 166.379565 33.707273  L 166.379565 32.696244  L 158.373478 32.696244  z " clip-path="url(#p79dfca17f7)" style="fill: #fefebb; stroke: #444443; stroke-width: 0.5; stroke-linejoin: miter" />
   </g>
   <g id="patch_19">
    <path d="M 166.379565 33.707273  L 174.385652 33.707273  L 174.385652 32.864749  L 166.379565 32.864749  z " clip-path="url(#p79dfca17f7)" style="fill: #fefebb; stroke: #444443; stroke-width: 0.5; stroke-linejoin: miter" />
   </g>
   <g id="patch_20">
    <path d="M 174.385652 33.707273  L 182.391739 33.707273  L 182.391739 33.538768  L 174.385652 33.538768  z " clip-path="url(#p79dfca17f7)" style="fill: #fefebb; stroke: #444443; stroke-width: 0.5; stroke-linejoin: miter" />
   </g>
   <g id="patch_21">
    <path d="M 182.391739 33.707273  L 190.397826 33.707273  L 190.397826 33.707273  L 182.391739 33.707273  z " clip-path="url(#p79dfca17f7)" style="fill: #fefebb; stroke: #444443; stroke-width: 0.5; stroke-linejoin: miter" />
   </g>
   <g id="patch_22">
    <path d="M 38.282174 32.359234  L 46.288261 32.359234  L 46.288261 29.83166  L 38.282174 29.83166  z " clip-path="url(#p79dfca17f7)" style="fill: #a1dab4; stroke: #444443; stroke-width: 0.5; stroke-linejoin: miter" />
   </g>
   <g id="patch_23">
    <path d="M 46.288261 33.201759  L 54.294348 33.201759  L 54.294348 32.864749  L 46.288261 32.864749  z " clip-path="url(#p79dfca17f7)" style="fill: #a1dab4; stroke: #444443; stroke-width: 0.5; stroke-linejoin: miter" />
   </g>
   <g id="patch_24">
    <path d="M 54.294348 32.864749  L 62.300435 32.864749  L 62.300435 32.190729  L 54.294348 32.190729  z " clip-path="url(#p79dfca17f7)" style="fill: #a1dab4; stroke: #444443; stroke-width: 0.5; stroke-linejoin: miter" />
   </g>
   <g id="patch_25">
    <path d="M 62.300435 30.50568  L 70.306522 30.50568  L 70.306522 30.16867  L 62.300435 30.16867  z " clip-path="url(#p79dfca17f7)" style="fill: #a1dab4; stroke: #444443; stroke-width: 0.5; stroke-linejoin: miter" />
   </g>
   <g id="patch_26">
    <path d="M 70.306522 24.439502  L 78.312609 24.439502  L 78.312609 23.259967  L 70.306522 23.259967  z " clip-path="url(#p79dfca17f7)" style="fill: #a1dab4; stroke: #444443; stroke-width: 0.5; stroke-linejoin: miter" />
   </g>
   <g id="patch_27">
    <path d="M 78.312609 24.945017  L 86.318696 24.945017  L 86.318696 23.765482  L 78.312609 23.765482  z " clip-path="url(#p79dfca17f7)" style="fill: #a1dab4; stroke: #444443; stroke-width: 0.5; stroke-linejoin: miter" />
   </g>
   <g id="patch_28">
    <path d="M 86.318696 8.094523  L 94.324783 8.094523  L 94.324783 3.039375  L 86.318696 3.039375  z " clip-path="url(#p79dfca17f7)" style="fill: #a1dab4; stroke: #444443; stroke-width: 0.5; stroke-linejoin: miter" />
   </g>
   <g id="patch_29">
    <path d="M 94.324783 27.135581  L 102.33087 27.135581  L 102.33087 25.282027  L 94.324783 25.282027  z " clip-path="url(#p79dfca17f7)" style="fill: #a1dab4; stroke: #444443; stroke-width: 0.5; stroke-linejoin: miter" />
   </g>
   <g id="patch_30">
    <path d="M 102.33087 27.304086  L 110.336957 27.304086  L 110.336957 25.450532  L 102.33087 25.450532  z " clip-path="url(#p79dfca17f7)" style="fill: #a1dab4; stroke: #444443; stroke-width: 0.5; stroke-linejoin: miter" />
   </g>
   <g id="patch_31">
    <path d="M 110.336957 29.663155  L 118.343043 29.663155  L 118.343043 28.82063  L 110.336957 28.82063  z " clip-path="url(#p79dfca17f7)" style="fill: #a1dab4; stroke: #444443; stroke-width: 0.5; stroke-linejoin: miter" />
   </g>
   <g id="patch_32">
    <path d="M 118.343043 30.842689  L 126.34913 30.842689  L 126.34913 30.337175  L 118.343043 30.337175  z " clip-path="url(#p79dfca17f7)" style="fill: #a1dab4; stroke: #444443; stroke-width: 0.5; stroke-linejoin: miter" />
   </g>
   <g id="patch_33">
    <path d="M 126.34913 31.179699  L 134.355217 31.179699  L 134.355217 30.16867  L 126.34913 30.16867  z " clip-path="url(#p79dfca17f7)" style="fill: #a1dab4; stroke: #444443; stroke-width: 0.5; stroke-linejoin: miter" />
   </g>
   <g id="patch_34">
    <path d="M 134.355217 31.516709  L 142.361304 31.516709  L 142.361304 31.179699  L 134.355217 31.179699  z " clip-path="url(#p79dfca17f7)" style="fill: #a1dab4; stroke: #444443; stroke-width: 0.5; stroke-linejoin: miter" />
   </g>
   <g id="patch_35">
    <path d="M 142.361304 32.190729  L 150.367391 32.190729  L 150.367391 32.022224  L 142.361304 32.022224  z " clip-path="url(#p79dfca17f7)" style="fill: #a1dab4; stroke: #444443; stroke-width: 0.5; stroke-linejoin: miter" />
   </g>
   <g id="patch_36">
    <path d="M 150.367391 32.527739  L 158.373478 32.527739  L 158.373478 32.190729  L 150.367391 32.190729  z " clip-path="url(#p79dfca17f7)" style="fill: #a1dab4; stroke: #444443; stroke-width: 0.5; stroke-linejoin: miter" />
   </g>
   <g id="patch_37">
    <path d="M 158.373478 32.696244  L 166.379565 32.696244  L 166.379565 32.696244  L 158.373478 32.696244  z " clip-path="url(#p79dfca17f7)" style="fill: #a1dab4; stroke: #444443; stroke-width: 0.5; stroke-linejoin: miter" />
   </g>
   <g id="patch_38">
    <path d="M 166.379565 32.864749  L 174.385652 32.864749  L 174.385652 32.864749  L 166.379565 32.864749  z " clip-path="url(#p79dfca17f7)" style="fill: #a1dab4; stroke: #444443; stroke-width: 0.5; stroke-linejoin: miter" />
   </g>
   <g id="patch_39">
    <path d="M 174.385652 33.538768  L 182.391739 33.538768  L 182.391739 33.538768  L 174.385652 33.538768  z " clip-path="url(#p79dfca17f7)" style="fill: #a1dab4; stroke: #444443; stroke-width: 0.5; stroke-linejoin: miter" />
   </g>
   <g id="patch_40">
    <path d="M 182.391739 33.707273  L 190.397826 33.707273  L 190.397826 33.538768  L 182.391739 33.538768  z " clip-path="url(#p79dfca17f7)" style="fill: #a1dab4; stroke: #444443; stroke-width: 0.5; stroke-linejoin: miter" />
   </g>
   <g id="patch_41">
    <path d="M 49.903978 34.538873  L 46.589458 42.854873  L 53.218498 42.854873  z " style="fill: #444443" />
   </g>
   <g id="matplotlib.axis_1">
    <g id="xtick_1">
     <g id="line2d_1">
      <defs>
       <path id="mfa36ff9698" d="M 0 0  L 0 3.5  " style="stroke: #000000; stroke-width: 0.3" />
      </defs>
      <g>
       <use xlink:href="#mfa36ff9698" x="38.282174" y="33.707273" style="stroke: #000000; stroke-width: 0.3" />
      </g>
     </g>
     <g id="text_1">
      
      <g style="fill: #444443" transform="translate(29.375924 51.286023) scale(0.08 -0.08)">
       <defs>
        <path id="DejaVuSans-30" d="M 2034 4250  Q 1547 4250 1301 3770  Q 1056 3291 1056 2328  Q 1056 1369 1301 889  Q 1547 409 2034 409  Q 2525 409 2770 889  Q 3016 1369 3016 2328  Q 3016 3291 2770 3770  Q 2525 4250 2034 4250  z M 2034 4750  Q 2819 4750 3233 4129  Q 3647 3509 3647 2328  Q 3647 1150 3233 529  Q 2819 -91 2034 -91  Q 1250 -91 836 529  Q 422 1150 422 2328  Q 422 3509 836 4129  Q 1250 4750 2034 4750  z " transform="scale(0.015625)" />
        <path id="DejaVuSans-2e" d="M 684 794  L 1344 794  L 1344 0  L 684 0  L 684 794  z " transform="scale(0.015625)" />
        <path id="DejaVuSans-34" d="M 2419 4116  L 825 1625  L 2419 1625  L 2419 4116  z M 2253 4666  L 3047 4666  L 3047 1625  L 3713 1625  L 3713 1100  L 3047 1100  L 3047 0  L 2419 0  L 2419 1100  L 313 1100  L 313 1709  L 2253 4666  z " transform="scale(0.015625)" />
        <path id="DejaVuSans-32" d="M 1228 531  L 3431 531  L 3431 0  L 469 0  L 469 531  Q 828 903 1448 1529  Q 2069 2156 2228 2338  Q 2531 2678 2651 2914  Q 2772 3150 2772 3378  Q 2772 3750 2511 3984  Q 2250 4219 1831 4219  Q 1534 4219 1204 4116  Q 875 4013 500 3803  L 500 4441  Q 881 4594 1212 4672  Q 1544 4750 1819 4750  Q 2544 4750 2975 4387  Q 3406 4025 3406 3419  Q 3406 3131 3298 2873  Q 3191 2616 2906 2266  Q 2828 2175 2409 1742  Q 1991 1309 1228 531  z " transform="scale(0.015625)" />
       </defs>
       <use xlink:href="#DejaVuSans-30" />
       <use xlink:href="#DejaVuSans-2e" x="63.623047" />
       <use xlink:href="#DejaVuSans-34" x="95.410156" />
       <use xlink:href="#DejaVuSans-32" x="159.033203" />
      </g>
     </g>
    </g>
    <g id="xtick_2">
     <g id="line2d_2">
      <g>
       <use xlink:href="#mfa36ff9698" x="190.397826" y="33.707273" style="stroke: #000000; stroke-width: 0.3" />
      </g>
     </g>
     <g id="text_2">
      
      <g style="fill: #444443" transform="translate(178.946576 51.286023) scale(0.08 -0.08)">
       <defs>
        <path id="DejaVuSans-38" d="M 2034 2216  Q 1584 2216 1326 1975  Q 1069 1734 1069 1313  Q 1069 891 1326 650  Q 1584 409 2034 409  Q 2484 409 2743 651  Q 3003 894 3003 1313  Q 3003 1734 2745 1975  Q 2488 2216 2034 2216  z M 1403 2484  Q 997 2584 770 2862  Q 544 3141 544 3541  Q 544 4100 942 4425  Q 1341 4750 2034 4750  Q 2731 4750 3128 4425  Q 3525 4100 3525 3541  Q 3525 3141 3298 2862  Q 3072 2584 2669 2484  Q 3125 2378 3379 2068  Q 3634 1759 3634 1313  Q 3634 634 3220 271  Q 2806 -91 2034 -91  Q 1263 -91 848 271  Q 434 634 434 1313  Q 434 1759 690 2068  Q 947 2378 1403 2484  z M 1172 3481  Q 1172 3119 1398 2916  Q 1625 2713 2034 2713  Q 2441 2713 2670 2916  Q 2900 3119 2900 3481  Q 2900 3844 2670 4047  Q 2441 4250 2034 4250  Q 1625 4250 1398 4047  Q 1172 3844 1172 3481  z " transform="scale(0.015625)" />
       </defs>
       <use xlink:href="#DejaVuSans-38" />
       <use xlink:href="#DejaVuSans-30" x="63.623047" />
       <use xlink:href="#DejaVuSans-2e" x="127.246094" />
       <use xlink:href="#DejaVuSans-30" x="159.033203" />
       <use xlink:href="#DejaVuSans-30" x="222.65625" />
      </g>
     </g>
    </g>
    <g id="text_3">
     
     <g style="fill: #444443" transform="translate(102.734687 66.067898) scale(0.12 -0.12)">
      <defs>
       <path id="DejaVuSans-41" d="M 2188 4044  L 1331 1722  L 3047 1722  L 2188 4044  z M 1831 4666  L 2547 4666  L 4325 0  L 3669 0  L 3244 1197  L 1141 1197  L 716 0  L 50 0  L 1831 4666  z " transform="scale(0.015625)" />
       <path id="DejaVuSans-67" d="M 2906 1791  Q 2906 2416 2648 2759  Q 2391 3103 1925 3103  Q 1463 3103 1205 2759  Q 947 2416 947 1791  Q 947 1169 1205 825  Q 1463 481 1925 481  Q 2391 481 2648 825  Q 2906 1169 2906 1791  z M 3481 434  Q 3481 -459 3084 -895  Q 2688 -1331 1869 -1331  Q 1566 -1331 1297 -1286  Q 1028 -1241 775 -1147  L 775 -588  Q 1028 -725 1275 -790  Q 1522 -856 1778 -856  Q 2344 -856 2625 -561  Q 2906 -266 2906 331  L 2906 616  Q 2728 306 2450 153  Q 2172 0 1784 0  Q 1141 0 747 490  Q 353 981 353 1791  Q 353 2603 747 3093  Q 1141 3584 1784 3584  Q 2172 3584 2450 3431  Q 2728 3278 2906 2969  L 2906 3500  L 3481 3500  L 3481 434  z " transform="scale(0.015625)" />
       <path id="DejaVuSans-65" d="M 3597 1894  L 3597 1613  L 953 1613  Q 991 1019 1311 708  Q 1631 397 2203 397  Q 2534 397 2845 478  Q 3156 559 3463 722  L 3463 178  Q 3153 47 2828 -22  Q 2503 -91 2169 -91  Q 1331 -91 842 396  Q 353 884 353 1716  Q 353 2575 817 3079  Q 1281 3584 2069 3584  Q 2775 3584 3186 3129  Q 3597 2675 3597 1894  z M 3022 2063  Q 3016 2534 2758 2815  Q 2500 3097 2075 3097  Q 1594 3097 1305 2825  Q 1016 2553 972 2059  L 3022 2063  z " transform="scale(0.015625)" />
      </defs>
      <use xlink:href="#DejaVuSans-41" />
      <use xlink:href="#DejaVuSans-67" x="68.408203" />
      <use xlink:href="#DejaVuSans-65" x="131.884766" />
     </g>
    </g>
   </g>
   <g id="matplotlib.axis_2">
    <g id="ytick_1">
     <g id="line2d_3">
      <defs>
       <path id="m88871209ef" d="M 0 0  L -3.5 0  " style="stroke: #000000; stroke-width: 0.3" />
      </defs>
      <g>
       <use xlink:href="#m88871209ef" x="22.27" y="33.707273" style="stroke: #000000; stroke-width: 0.3" />
      </g>
     </g>
     <g id="text_4">
      
      <g style="fill: #444443" transform="translate(10.18 36.746648) scale(0.08 -0.08)">
       <use xlink:href="#DejaVuSans-30" />
      </g>
     </g>
    </g>
    <g id="ytick_2">
     <g id="line2d_4">
      <g>
       <use xlink:href="#m88871209ef" x="22.27" y="3.039375" style="stroke: #000000; stroke-width: 0.3" />
      </g>
     </g>
     <g id="text_5">
      
      <g style="fill: #444443" transform="translate(0 6.07875) scale(0.08 -0.08)">
       <defs>
        <path id="DejaVuSans-31" d="M 794 531  L 1825 531  L 1825 4091  L 703 3866  L 703 4441  L 1819 4666  L 2450 4666  L 2450 531  L 3481 531  L 3481 0  L 794 0  L 794 531  z " transform="scale(0.015625)" />
       </defs>
       <use xlink:href="#DejaVuSans-31" />
       <use xlink:href="#DejaVuSans-38" x="63.623047" />
       <use xlink:href="#DejaVuSans-32" x="127.246094" />
      </g>
     </g>
    </g>
   </g>
   <g id="patch_42">
    <path d="M 22.27 33.707273  L 22.27 1.50598  " style="fill: none; stroke: #444443; stroke-width: 0.3; stroke-linejoin: miter; stroke-linecap: square" />
   </g>
   <g id="patch_43">
    <path d="M 22.27 33.707273  L 206.41 33.707273  " style="fill: none; stroke: #444443; stroke-width: 0.3; stroke-linejoin: miter; stroke-linecap: square" />
   </g>
  </g>
 </g>
 <defs>
  <clipPath id="p79dfca17f7">
   <rect x="22.27" y="1.50598" width="184.14" height="32.201293" />
  </clipPath>
 </defs>
</svg></g>


<g id="node4" class="node">
<title>leaf2</title>
<polygon fill="none" stroke="#444443" stroke-width="0" points="68,-84 0,-84 0,0 68,0 68,-84" />
<svg width="60px" height="76px" viewBox="0 0 80.079987 102.071535" version="1.1" preserveAspectRatio="xMinYMin meet" x="4" y="-80">
 <metadata>
  <rdf:RDF>
   <ns2:Work>
    <dc:type rdf:resource="http://purl.org/dc/dcmitype/StillImage" />
    <dc:date>2024-10-28T18:56:53.666070</dc:date>
    <dc:format>image/svg+xml</dc:format>
    <dc:creator>
     <ns2:Agent>
      <dc:title>Matplotlib v3.9.2, https://matplotlib.org/</dc:title>
     </ns2:Agent>
    </dc:creator>
   </ns2:Work>
  </rdf:RDF>
 </metadata>
 <defs>
  <style type="text/css">*{stroke-linejoin: round; stroke-linecap: butt}</style>
 </defs>
 <g id="figure_1">
  <g id="patch_1">
   <path d="M 0 102.071535  L 80.079987 102.071535  L 80.079987 0  L 0 0  z " style="fill: #ffffff" />
  </g>
  <g id="axes_1">
   <g id="patch_2">
    <path d="M 80.079987 40.039991  C 80.079987 37.8189 79.895176 35.601655 79.527465 33.411214  C 79.159755 31.220772 78.61042 29.06472 77.885148 26.965381  L 40.039987 40.039991  z " style="fill: #fefebb; stroke: #444443; stroke-width: 0.5; stroke-linejoin: miter" />
   </g>
   <g id="patch_3">
    <path d="M 77.885148 26.965381  C 76.259636 22.26025 73.770834 17.899256 70.54663 14.106492  C 67.322426 10.313728 63.419008 7.155291 59.036956 4.793477  C 54.654904 2.431663 49.870583 0.907632 44.929837 0.299697  C 39.989092 -0.308238 34.978025 0.010518 30.154132 1.239586  C 25.330239 2.468653 20.777586 4.586612 16.730114 7.484632  C 12.682642 10.382651 9.210885 14.010227 6.493242 18.180954  C 3.775599 22.351682 1.85943 26.992877 0.843198 31.866051  C -0.173034 36.739224 -0.271619 41.759451 0.552509 46.668765  C 1.376637 51.578079 3.109116 56.290925 5.660921 60.565131  C 8.212726 64.839337 11.539387 68.600417 15.469963 71.655106  C 19.400539 74.709795 23.86653 77.004859 28.638451 78.422364  C 33.410372 79.83987 38.405061 80.355114 43.365865 79.941622  C 48.326668 79.528129 53.167134 78.193106 57.638533 76.005152  C 62.109932 73.817198 66.13434 70.814443 69.504962 67.151186  C 72.875584 63.487928 75.53368 59.228007 77.342662 54.590321  C 79.151644 49.952635 80.079987 45.018004 80.079987 40.039998  L 40.039987 40.039991  z " style="fill: #a1dab4; stroke: #444443; stroke-width: 0.5; stroke-linejoin: miter" />
   </g>
   <g id="text_1">
    
    <g style="fill: #444443" transform="translate(24.827878 90.121785) scale(0.09 -0.09)">
     <defs>
      <path id="DejaVuSans-6e" d="M 3513 2113  L 3513 0  L 2938 0  L 2938 2094  Q 2938 2591 2744 2837  Q 2550 3084 2163 3084  Q 1697 3084 1428 2787  Q 1159 2491 1159 1978  L 1159 0  L 581 0  L 581 3500  L 1159 3500  L 1159 2956  Q 1366 3272 1645 3428  Q 1925 3584 2291 3584  Q 2894 3584 3203 3211  Q 3513 2838 3513 2113  z " transform="scale(0.015625)" />
      <path id="DejaVuSans-3d" d="M 678 2906  L 4684 2906  L 4684 2381  L 678 2381  L 678 2906  z M 678 1631  L 4684 1631  L 4684 1100  L 678 1100  L 678 1631  z " transform="scale(0.015625)" />
      <path id="DejaVuSans-31" d="M 794 531  L 1825 531  L 1825 4091  L 703 3866  L 703 4441  L 1819 4666  L 2450 4666  L 2450 531  L 3481 531  L 3481 0  L 794 0  L 794 531  z " transform="scale(0.015625)" />
      <path id="DejaVuSans-37" d="M 525 4666  L 3525 4666  L 3525 4397  L 1831 0  L 1172 0  L 2766 4134  L 525 4134  L 525 4666  z " transform="scale(0.015625)" />
      <path id="DejaVuSans-30" d="M 2034 4250  Q 1547 4250 1301 3770  Q 1056 3291 1056 2328  Q 1056 1369 1301 889  Q 1547 409 2034 409  Q 2525 409 2770 889  Q 3016 1369 3016 2328  Q 3016 3291 2770 3770  Q 2525 4250 2034 4250  z M 2034 4750  Q 2819 4750 3233 4129  Q 3647 3509 3647 2328  Q 3647 1150 3233 529  Q 2819 -91 2034 -91  Q 1250 -91 836 529  Q 422 1150 422 2328  Q 422 3509 836 4129  Q 1250 4750 2034 4750  z " transform="scale(0.015625)" />
     </defs>
     <use xlink:href="#DejaVuSans-6e" />
     <use xlink:href="#DejaVuSans-3d" x="63.378906" />
     <use xlink:href="#DejaVuSans-31" x="147.167969" />
     <use xlink:href="#DejaVuSans-37" x="210.791016" />
     <use xlink:href="#DejaVuSans-30" x="274.414062" />
    </g>
    
    <g style="fill: #444443" transform="translate(23.648034 100.199816) scale(0.09 -0.09)">
     <defs>
      <path id="DejaVuSans-73" d="M 2834 3397  L 2834 2853  Q 2591 2978 2328 3040  Q 2066 3103 1784 3103  Q 1356 3103 1142 2972  Q 928 2841 928 2578  Q 928 2378 1081 2264  Q 1234 2150 1697 2047  L 1894 2003  Q 2506 1872 2764 1633  Q 3022 1394 3022 966  Q 3022 478 2636 193  Q 2250 -91 1575 -91  Q 1294 -91 989 -36  Q 684 19 347 128  L 347 722  Q 666 556 975 473  Q 1284 391 1588 391  Q 1994 391 2212 530  Q 2431 669 2431 922  Q 2431 1156 2273 1281  Q 2116 1406 1581 1522  L 1381 1569  Q 847 1681 609 1914  Q 372 2147 372 2553  Q 372 3047 722 3315  Q 1072 3584 1716 3584  Q 2034 3584 2315 3537  Q 2597 3491 2834 3397  z " transform="scale(0.015625)" />
      <path id="DejaVuSans-75" d="M 544 1381  L 544 3500  L 1119 3500  L 1119 1403  Q 1119 906 1312 657  Q 1506 409 1894 409  Q 2359 409 2629 706  Q 2900 1003 2900 1516  L 2900 3500  L 3475 3500  L 3475 0  L 2900 0  L 2900 538  Q 2691 219 2414 64  Q 2138 -91 1772 -91  Q 1169 -91 856 284  Q 544 659 544 1381  z M 1991 3584  L 1991 3584  z " transform="scale(0.015625)" />
      <path id="DejaVuSans-72" d="M 2631 2963  Q 2534 3019 2420 3045  Q 2306 3072 2169 3072  Q 1681 3072 1420 2755  Q 1159 2438 1159 1844  L 1159 0  L 581 0  L 581 3500  L 1159 3500  L 1159 2956  Q 1341 3275 1631 3429  Q 1922 3584 2338 3584  Q 2397 3584 2469 3576  Q 2541 3569 2628 3553  L 2631 2963  z " transform="scale(0.015625)" />
      <path id="DejaVuSans-76" d="M 191 3500  L 800 3500  L 1894 563  L 2988 3500  L 3597 3500  L 2284 0  L 1503 0  L 191 3500  z " transform="scale(0.015625)" />
      <path id="DejaVuSans-69" d="M 603 3500  L 1178 3500  L 1178 0  L 603 0  L 603 3500  z M 603 4863  L 1178 4863  L 1178 4134  L 603 4134  L 603 4863  z " transform="scale(0.015625)" />
      <path id="DejaVuSans-65" d="M 3597 1894  L 3597 1613  L 953 1613  Q 991 1019 1311 708  Q 1631 397 2203 397  Q 2534 397 2845 478  Q 3156 559 3463 722  L 3463 178  Q 3153 47 2828 -22  Q 2503 -91 2169 -91  Q 1331 -91 842 396  Q 353 884 353 1716  Q 353 2575 817 3079  Q 1281 3584 2069 3584  Q 2775 3584 3186 3129  Q 3597 2675 3597 1894  z M 3022 2063  Q 3016 2534 2758 2815  Q 2500 3097 2075 3097  Q 1594 3097 1305 2825  Q 1016 2553 972 2059  L 3022 2063  z " transform="scale(0.015625)" />
     </defs>
     <use xlink:href="#DejaVuSans-73" />
     <use xlink:href="#DejaVuSans-75" x="52.099609" />
     <use xlink:href="#DejaVuSans-72" x="115.478516" />
     <use xlink:href="#DejaVuSans-76" x="156.591797" />
     <use xlink:href="#DejaVuSans-69" x="215.771484" />
     <use xlink:href="#DejaVuSans-76" x="243.554688" />
     <use xlink:href="#DejaVuSans-65" x="302.734375" />
    </g>
   </g>
  </g>
 </g>
</svg></g>

<g id="edge1" class="edge">
<title>node1-&gt;leaf2</title>
<path fill="none" stroke="#444443" stroke-width="0.3" d="M76.03,-102.61C72.62,-97.77 68.99,-92.61 65.34,-87.44" />
<polygon fill="#444443" stroke="#444443" stroke-width="0.3" points="66.52,-86.68 63.07,-84.22 64.23,-88.3 66.52,-86.68" />
</g>

<g id="node5" class="node">
<title>leaf3</title>
<polygon fill="none" stroke="#444443" stroke-width="0" points="150,-84 82,-84 82,0 150,0 150,-84" />
<svg width="60px" height="76px" viewBox="0 0 80.08 102.071544" version="1.1" preserveAspectRatio="xMinYMin meet" x="86" y="-80">
 <metadata>
  <rdf:RDF>
   <ns2:Work>
    <dc:type rdf:resource="http://purl.org/dc/dcmitype/StillImage" />
    <dc:date>2024-10-28T18:56:53.716110</dc:date>
    <dc:format>image/svg+xml</dc:format>
    <dc:creator>
     <ns2:Agent>
      <dc:title>Matplotlib v3.9.2, https://matplotlib.org/</dc:title>
     </ns2:Agent>
    </dc:creator>
   </ns2:Work>
  </rdf:RDF>
 </metadata>
 <defs>
  <style type="text/css">*{stroke-linejoin: round; stroke-linecap: butt}</style>
 </defs>
 <g id="figure_1">
  <g id="patch_1">
   <path d="M 0 102.071544  L 80.08 102.071544  L 80.08 0  L 0 0  z " style="fill: #ffffff" />
  </g>
  <g id="axes_1">
   <g id="patch_2">
    <path d="M 80.08 40.04  C 80.08 29.424804 75.858632 19.233521 68.352556 11.727444  C 60.846479 4.221368 50.655196 -0 40.04 -0  C 29.424804 -0 19.233521 4.221368 11.727444 11.727444  C 4.221368 19.233521 0 29.424804 0 40.04  L 40.04 40.04  z " style="fill: #fefebb; stroke: #444443; stroke-width: 0.5; stroke-linejoin: miter" />
   </g>
   <g id="patch_3">
    <path d="M 0 40.04  C 0 50.655196 4.221368 60.846479 11.727444 68.352556  C 19.233521 75.858632 29.424804 80.08 40.04 80.08  C 50.655196 80.08 60.846479 75.858632 68.352556 68.352556  C 75.858632 60.846479 80.08 50.655196 80.08 40.04  L 40.04 40.04  z " style="fill: #a1dab4; stroke: #444443; stroke-width: 0.5; stroke-linejoin: miter" />
   </g>
   <g id="text_1">
    
    <g style="fill: #444443" transform="translate(24.827891 90.121794) scale(0.09 -0.09)">
     <defs>
      <path id="DejaVuSans-6e" d="M 3513 2113  L 3513 0  L 2938 0  L 2938 2094  Q 2938 2591 2744 2837  Q 2550 3084 2163 3084  Q 1697 3084 1428 2787  Q 1159 2491 1159 1978  L 1159 0  L 581 0  L 581 3500  L 1159 3500  L 1159 2956  Q 1366 3272 1645 3428  Q 1925 3584 2291 3584  Q 2894 3584 3203 3211  Q 3513 2838 3513 2113  z " transform="scale(0.015625)" />
      <path id="DejaVuSans-3d" d="M 678 2906  L 4684 2906  L 4684 2381  L 678 2381  L 678 2906  z M 678 1631  L 4684 1631  L 4684 1100  L 678 1100  L 678 1631  z " transform="scale(0.015625)" />
      <path id="DejaVuSans-31" d="M 794 531  L 1825 531  L 1825 4091  L 703 3866  L 703 4441  L 1819 4666  L 2450 4666  L 2450 531  L 3481 531  L 3481 0  L 794 0  L 794 531  z " transform="scale(0.015625)" />
      <path id="DejaVuSans-34" d="M 2419 4116  L 825 1625  L 2419 1625  L 2419 4116  z M 2253 4666  L 3047 4666  L 3047 1625  L 3713 1625  L 3713 1100  L 3047 1100  L 3047 0  L 2419 0  L 2419 1100  L 313 1100  L 313 1709  L 2253 4666  z " transform="scale(0.015625)" />
     </defs>
     <use xlink:href="#DejaVuSans-6e" />
     <use xlink:href="#DejaVuSans-3d" x="63.378906" />
     <use xlink:href="#DejaVuSans-31" x="147.167969" />
     <use xlink:href="#DejaVuSans-34" x="210.791016" />
     <use xlink:href="#DejaVuSans-34" x="274.414062" />
    </g>
    
    <g style="fill: #444443" transform="translate(26.118125 100.199825) scale(0.09 -0.09)">
     <defs>
      <path id="DejaVuSans-70" d="M 1159 525  L 1159 -1331  L 581 -1331  L 581 3500  L 1159 3500  L 1159 2969  Q 1341 3281 1617 3432  Q 1894 3584 2278 3584  Q 2916 3584 3314 3078  Q 3713 2572 3713 1747  Q 3713 922 3314 415  Q 2916 -91 2278 -91  Q 1894 -91 1617 61  Q 1341 213 1159 525  z M 3116 1747  Q 3116 2381 2855 2742  Q 2594 3103 2138 3103  Q 1681 3103 1420 2742  Q 1159 2381 1159 1747  Q 1159 1113 1420 752  Q 1681 391 2138 391  Q 2594 391 2855 752  Q 3116 1113 3116 1747  z " transform="scale(0.015625)" />
      <path id="DejaVuSans-65" d="M 3597 1894  L 3597 1613  L 953 1613  Q 991 1019 1311 708  Q 1631 397 2203 397  Q 2534 397 2845 478  Q 3156 559 3463 722  L 3463 178  Q 3153 47 2828 -22  Q 2503 -91 2169 -91  Q 1331 -91 842 396  Q 353 884 353 1716  Q 353 2575 817 3079  Q 1281 3584 2069 3584  Q 2775 3584 3186 3129  Q 3597 2675 3597 1894  z M 3022 2063  Q 3016 2534 2758 2815  Q 2500 3097 2075 3097  Q 1594 3097 1305 2825  Q 1016 2553 972 2059  L 3022 2063  z " transform="scale(0.015625)" />
      <path id="DejaVuSans-72" d="M 2631 2963  Q 2534 3019 2420 3045  Q 2306 3072 2169 3072  Q 1681 3072 1420 2755  Q 1159 2438 1159 1844  L 1159 0  L 581 0  L 581 3500  L 1159 3500  L 1159 2956  Q 1341 3275 1631 3429  Q 1922 3584 2338 3584  Q 2397 3584 2469 3576  Q 2541 3569 2628 3553  L 2631 2963  z " transform="scale(0.015625)" />
      <path id="DejaVuSans-69" d="M 603 3500  L 1178 3500  L 1178 0  L 603 0  L 603 3500  z M 603 4863  L 1178 4863  L 1178 4134  L 603 4134  L 603 4863  z " transform="scale(0.015625)" />
      <path id="DejaVuSans-73" d="M 2834 3397  L 2834 2853  Q 2591 2978 2328 3040  Q 2066 3103 1784 3103  Q 1356 3103 1142 2972  Q 928 2841 928 2578  Q 928 2378 1081 2264  Q 1234 2150 1697 2047  L 1894 2003  Q 2506 1872 2764 1633  Q 3022 1394 3022 966  Q 3022 478 2636 193  Q 2250 -91 1575 -91  Q 1294 -91 989 -36  Q 684 19 347 128  L 347 722  Q 666 556 975 473  Q 1284 391 1588 391  Q 1994 391 2212 530  Q 2431 669 2431 922  Q 2431 1156 2273 1281  Q 2116 1406 1581 1522  L 1381 1569  Q 847 1681 609 1914  Q 372 2147 372 2553  Q 372 3047 722 3315  Q 1072 3584 1716 3584  Q 2034 3584 2315 3537  Q 2597 3491 2834 3397  z " transform="scale(0.015625)" />
      <path id="DejaVuSans-68" d="M 3513 2113  L 3513 0  L 2938 0  L 2938 2094  Q 2938 2591 2744 2837  Q 2550 3084 2163 3084  Q 1697 3084 1428 2787  Q 1159 2491 1159 1978  L 1159 0  L 581 0  L 581 4863  L 1159 4863  L 1159 2956  Q 1366 3272 1645 3428  Q 1925 3584 2291 3584  Q 2894 3584 3203 3211  Q 3513 2838 3513 2113  z " transform="scale(0.015625)" />
     </defs>
     <use xlink:href="#DejaVuSans-70" />
     <use xlink:href="#DejaVuSans-65" x="63.476562" />
     <use xlink:href="#DejaVuSans-72" x="125" />
     <use xlink:href="#DejaVuSans-69" x="166.113281" />
     <use xlink:href="#DejaVuSans-73" x="193.896484" />
     <use xlink:href="#DejaVuSans-68" x="245.996094" />
    </g>
   </g>
  </g>
 </g>
</svg></g>

<g id="edge2" class="edge">
<title>node1-&gt;leaf3</title>
<path fill="none" stroke="#444443" stroke-width="0.3" d="M101.53,-102.61C102.66,-97.96 103.86,-93.01 105.07,-88.03" />
<polygon fill="#444443" stroke="#444443" stroke-width="0.3" points="106.39,-88.51 105.98,-84.29 103.67,-87.85 106.39,-88.51" />
</g>

<g id="node6" class="node">
<title>leaf5</title>
<polygon fill="none" stroke="#444443" stroke-width="0" points="256.5,-68 219.5,-68 219.5,-16 256.5,-16 256.5,-68" />
<svg width="29px" height="44px" viewBox="0 0 38.808 59.148664" version="1.1" preserveAspectRatio="xMinYMin meet" x="223.5" y="-64">
 <metadata>
  <rdf:RDF>
   <ns2:Work>
    <dc:type rdf:resource="http://purl.org/dc/dcmitype/StillImage" />
    <dc:date>2024-10-28T18:56:53.776278</dc:date>
    <dc:format>image/svg+xml</dc:format>
    <dc:creator>
     <ns2:Agent>
      <dc:title>Matplotlib v3.9.2, https://matplotlib.org/</dc:title>
     </ns2:Agent>
    </dc:creator>
   </ns2:Work>
  </rdf:RDF>
 </metadata>
 <defs>
  <style type="text/css">*{stroke-linejoin: round; stroke-linecap: butt}</style>
 </defs>
 <g id="figure_1">
  <g id="patch_1">
   <path d="M 0 59.148664  L 38.808 59.148664  L 38.808 0  L 0 0  z " style="fill: #ffffff" />
  </g>
  <g id="axes_1">
   <g id="patch_2">
    <path d="M 38.808 19.404  C 38.808 15.99814 37.911287 12.651561 36.208357 9.702  C 34.505427 6.752439 32.055561 4.302573 29.105999 2.599643  C 26.156438 0.896713 22.809859 -0 19.403999 0  C 15.998139 0 12.65156 0.896714 9.701999 2.599644  L 19.404 19.404  z " style="fill: #fefebb; stroke: #444443; stroke-width: 0.5; stroke-linejoin: miter" />
   </g>
   <g id="patch_3">
    <path d="M 9.701999 2.599644  C 6.752438 4.302574 4.302572 6.75244 2.599642 9.702001  C 0.896713 12.651563 -0 15.998142 0 19.404002  C 0 22.809862 0.896714 26.156441 2.599644 29.106002  C 4.302574 32.055563 6.752441 34.505429 9.702002 36.208358  C 12.651564 37.911288 15.998143 38.808 19.404003 38.808  C 22.809863 38.808 26.156442 37.911286 29.106003 36.208355  C 32.055564 34.505425 34.505429 32.055559 36.208359 29.105997  C 37.911288 26.156436 38.808001 22.809856 38.808 19.403996  L 19.404 19.404  z " style="fill: #a1dab4; stroke: #444443; stroke-width: 0.5; stroke-linejoin: miter" />
   </g>
   <g id="text_1">
    
    <g style="fill: #444443" transform="translate(7.055016 47.198914) scale(0.09 -0.09)">
     <defs>
      <path id="DejaVuSans-6e" d="M 3513 2113  L 3513 0  L 2938 0  L 2938 2094  Q 2938 2591 2744 2837  Q 2550 3084 2163 3084  Q 1697 3084 1428 2787  Q 1159 2491 1159 1978  L 1159 0  L 581 0  L 581 3500  L 1159 3500  L 1159 2956  Q 1366 3272 1645 3428  Q 1925 3584 2291 3584  Q 2894 3584 3203 3211  Q 3513 2838 3513 2113  z " transform="scale(0.015625)" />
      <path id="DejaVuSans-3d" d="M 678 2906  L 4684 2906  L 4684 2381  L 678 2381  L 678 2906  z M 678 1631  L 4684 1631  L 4684 1100  L 678 1100  L 678 1631  z " transform="scale(0.015625)" />
      <path id="DejaVuSans-32" d="M 1228 531  L 3431 531  L 3431 0  L 469 0  L 469 531  Q 828 903 1448 1529  Q 2069 2156 2228 2338  Q 2531 2678 2651 2914  Q 2772 3150 2772 3378  Q 2772 3750 2511 3984  Q 2250 4219 1831 4219  Q 1534 4219 1204 4116  Q 875 4013 500 3803  L 500 4441  Q 881 4594 1212 4672  Q 1544 4750 1819 4750  Q 2544 4750 2975 4387  Q 3406 4025 3406 3419  Q 3406 3131 3298 2873  Q 3191 2616 2906 2266  Q 2828 2175 2409 1742  Q 1991 1309 1228 531  z " transform="scale(0.015625)" />
      <path id="DejaVuSans-34" d="M 2419 4116  L 825 1625  L 2419 1625  L 2419 4116  z M 2253 4666  L 3047 4666  L 3047 1625  L 3713 1625  L 3713 1100  L 3047 1100  L 3047 0  L 2419 0  L 2419 1100  L 313 1100  L 313 1709  L 2253 4666  z " transform="scale(0.015625)" />
     </defs>
     <use xlink:href="#DejaVuSans-6e" />
     <use xlink:href="#DejaVuSans-3d" x="63.378906" />
     <use xlink:href="#DejaVuSans-32" x="147.167969" />
     <use xlink:href="#DejaVuSans-34" x="210.791016" />
    </g>
    
    <g style="fill: #444443" transform="translate(3.012047 57.276945) scale(0.09 -0.09)">
     <defs>
      <path id="DejaVuSans-73" d="M 2834 3397  L 2834 2853  Q 2591 2978 2328 3040  Q 2066 3103 1784 3103  Q 1356 3103 1142 2972  Q 928 2841 928 2578  Q 928 2378 1081 2264  Q 1234 2150 1697 2047  L 1894 2003  Q 2506 1872 2764 1633  Q 3022 1394 3022 966  Q 3022 478 2636 193  Q 2250 -91 1575 -91  Q 1294 -91 989 -36  Q 684 19 347 128  L 347 722  Q 666 556 975 473  Q 1284 391 1588 391  Q 1994 391 2212 530  Q 2431 669 2431 922  Q 2431 1156 2273 1281  Q 2116 1406 1581 1522  L 1381 1569  Q 847 1681 609 1914  Q 372 2147 372 2553  Q 372 3047 722 3315  Q 1072 3584 1716 3584  Q 2034 3584 2315 3537  Q 2597 3491 2834 3397  z " transform="scale(0.015625)" />
      <path id="DejaVuSans-75" d="M 544 1381  L 544 3500  L 1119 3500  L 1119 1403  Q 1119 906 1312 657  Q 1506 409 1894 409  Q 2359 409 2629 706  Q 2900 1003 2900 1516  L 2900 3500  L 3475 3500  L 3475 0  L 2900 0  L 2900 538  Q 2691 219 2414 64  Q 2138 -91 1772 -91  Q 1169 -91 856 284  Q 544 659 544 1381  z M 1991 3584  L 1991 3584  z " transform="scale(0.015625)" />
      <path id="DejaVuSans-72" d="M 2631 2963  Q 2534 3019 2420 3045  Q 2306 3072 2169 3072  Q 1681 3072 1420 2755  Q 1159 2438 1159 1844  L 1159 0  L 581 0  L 581 3500  L 1159 3500  L 1159 2956  Q 1341 3275 1631 3429  Q 1922 3584 2338 3584  Q 2397 3584 2469 3576  Q 2541 3569 2628 3553  L 2631 2963  z " transform="scale(0.015625)" />
      <path id="DejaVuSans-76" d="M 191 3500  L 800 3500  L 1894 563  L 2988 3500  L 3597 3500  L 2284 0  L 1503 0  L 191 3500  z " transform="scale(0.015625)" />
      <path id="DejaVuSans-69" d="M 603 3500  L 1178 3500  L 1178 0  L 603 0  L 603 3500  z M 603 4863  L 1178 4863  L 1178 4134  L 603 4134  L 603 4863  z " transform="scale(0.015625)" />
      <path id="DejaVuSans-65" d="M 3597 1894  L 3597 1613  L 953 1613  Q 991 1019 1311 708  Q 1631 397 2203 397  Q 2534 397 2845 478  Q 3156 559 3463 722  L 3463 178  Q 3153 47 2828 -22  Q 2503 -91 2169 -91  Q 1331 -91 842 396  Q 353 884 353 1716  Q 353 2575 817 3079  Q 1281 3584 2069 3584  Q 2775 3584 3186 3129  Q 3597 2675 3597 1894  z M 3022 2063  Q 3016 2534 2758 2815  Q 2500 3097 2075 3097  Q 1594 3097 1305 2825  Q 1016 2553 972 2059  L 3022 2063  z " transform="scale(0.015625)" />
     </defs>
     <use xlink:href="#DejaVuSans-73" />
     <use xlink:href="#DejaVuSans-75" x="52.099609" />
     <use xlink:href="#DejaVuSans-72" x="115.478516" />
     <use xlink:href="#DejaVuSans-76" x="156.591797" />
     <use xlink:href="#DejaVuSans-69" x="215.771484" />
     <use xlink:href="#DejaVuSans-76" x="243.554688" />
     <use xlink:href="#DejaVuSans-65" x="302.734375" />
    </g>
   </g>
  </g>
 </g>
</svg></g>

<g id="edge4" class="edge">
<title>node4-&gt;leaf5</title>
<path fill="none" stroke="#444443" stroke-width="0.3" d="M260.19,-101.18C256.61,-91.78 252.61,-81.31 249.01,-71.87" />
<polygon fill="#444443" stroke="#444443" stroke-width="0.3" points="250.39,-71.55 247.66,-68.32 247.78,-72.55 250.39,-71.55" />
</g>

<g id="node7" class="node">
<title>leaf6</title>
<polygon fill="none" stroke="#444443" stroke-width="0" points="338,-84 270,-84 270,0 338,0 338,-84" />
<svg width="60px" height="76px" viewBox="0 0 80.079995 102.071542" version="1.1" preserveAspectRatio="xMinYMin meet" x="274" y="-80">
 <metadata>
  <rdf:RDF>
   <ns2:Work>
    <dc:type rdf:resource="http://purl.org/dc/dcmitype/StillImage" />
    <dc:date>2024-10-28T18:56:53.829425</dc:date>
    <dc:format>image/svg+xml</dc:format>
    <dc:creator>
     <ns2:Agent>
      <dc:title>Matplotlib v3.9.2, https://matplotlib.org/</dc:title>
     </ns2:Agent>
    </dc:creator>
   </ns2:Work>
  </rdf:RDF>
 </metadata>
 <defs>
  <style type="text/css">*{stroke-linejoin: round; stroke-linecap: butt}</style>
 </defs>
 <g id="figure_1">
  <g id="patch_1">
   <path d="M 0 102.071542  L 80.079995 102.071542  L 80.079995 0  L 0 0  z " style="fill: #ffffff" />
  </g>
  <g id="axes_1">
   <g id="patch_2">
    <path d="M 80.079995 40.039999  C 80.079995 35.670541 79.364754 31.330403 77.962687 27.192002  C 76.56062 23.053601 74.490542 19.172474 71.834689 15.702805  C 69.178837 12.233135 65.972852 9.221486 62.344096 6.7875  C 58.715341 4.353514 54.712512 2.529853 50.49463 1.388967  C 46.276747 0.248081 41.900413 -0.19472 37.539485 0.078154  C 33.178556 0.351028 28.891557 1.335915 24.848793 2.99369  C 20.806029 4.651465 17.061755 6.95988 13.764717 9.82723  C 10.467679 12.69458 7.662123 16.082386 5.459505 19.856062  C 3.256886 23.629737 1.686764 27.738641 0.811513 32.019539  C -0.063739 36.300438 -0.232372 40.695882 0.31231 45.031257  C 0.856993 49.366632 2.107682 53.583758 4.014693 57.515102  C 5.921704 61.446446 8.459444 65.03925 11.527099 68.150786  C 14.594753 71.262321 18.151154 73.850831 22.055018 75.813483  C 25.958882 77.776135 30.157819 79.086591 34.485022 79.69279  C 38.812224 80.298989 43.20962 80.192797 47.502517 79.378432  C 51.795414 78.564067 55.926202 77.052458 59.730779 74.903656  L 40.039995 40.039999  z " style="fill: #fefebb; stroke: #444443; stroke-width: 0.5; stroke-linejoin: miter" />
   </g>
   <g id="patch_3">
    <path d="M 59.730779 74.903656  C 65.906131 71.415854 71.045331 66.349132 74.620484 60.223937  C 78.195638 54.098742 80.079994 47.132233 80.079995 40.040002  L 40.039995 40.039999  z " style="fill: #a1dab4; stroke: #444443; stroke-width: 0.5; stroke-linejoin: miter" />
   </g>
   <g id="text_1">
    
    <g style="fill: #444443" transform="translate(24.827886 90.121792) scale(0.09 -0.09)">
     <defs>
      <path id="DejaVuSans-6e" d="M 3513 2113  L 3513 0  L 2938 0  L 2938 2094  Q 2938 2591 2744 2837  Q 2550 3084 2163 3084  Q 1697 3084 1428 2787  Q 1159 2491 1159 1978  L 1159 0  L 581 0  L 581 3500  L 1159 3500  L 1159 2956  Q 1366 3272 1645 3428  Q 1925 3584 2291 3584  Q 2894 3584 3203 3211  Q 3513 2838 3513 2113  z " transform="scale(0.015625)" />
      <path id="DejaVuSans-3d" d="M 678 2906  L 4684 2906  L 4684 2381  L 678 2381  L 678 2906  z M 678 1631  L 4684 1631  L 4684 1100  L 678 1100  L 678 1631  z " transform="scale(0.015625)" />
      <path id="DejaVuSans-35" d="M 691 4666  L 3169 4666  L 3169 4134  L 1269 4134  L 1269 2991  Q 1406 3038 1543 3061  Q 1681 3084 1819 3084  Q 2600 3084 3056 2656  Q 3513 2228 3513 1497  Q 3513 744 3044 326  Q 2575 -91 1722 -91  Q 1428 -91 1123 -41  Q 819 9 494 109  L 494 744  Q 775 591 1075 516  Q 1375 441 1709 441  Q 2250 441 2565 725  Q 2881 1009 2881 1497  Q 2881 1984 2565 2268  Q 2250 2553 1709 2553  Q 1456 2553 1204 2497  Q 953 2441 691 2322  L 691 4666  z " transform="scale(0.015625)" />
      <path id="DejaVuSans-33" d="M 2597 2516  Q 3050 2419 3304 2112  Q 3559 1806 3559 1356  Q 3559 666 3084 287  Q 2609 -91 1734 -91  Q 1441 -91 1130 -33  Q 819 25 488 141  L 488 750  Q 750 597 1062 519  Q 1375 441 1716 441  Q 2309 441 2620 675  Q 2931 909 2931 1356  Q 2931 1769 2642 2001  Q 2353 2234 1838 2234  L 1294 2234  L 1294 2753  L 1863 2753  Q 2328 2753 2575 2939  Q 2822 3125 2822 3475  Q 2822 3834 2567 4026  Q 2313 4219 1838 4219  Q 1578 4219 1281 4162  Q 984 4106 628 3988  L 628 4550  Q 988 4650 1302 4700  Q 1616 4750 1894 4750  Q 2613 4750 3031 4423  Q 3450 4097 3450 3541  Q 3450 3153 3228 2886  Q 3006 2619 2597 2516  z " transform="scale(0.015625)" />
     </defs>
     <use xlink:href="#DejaVuSans-6e" />
     <use xlink:href="#DejaVuSans-3d" x="63.378906" />
     <use xlink:href="#DejaVuSans-35" x="147.167969" />
     <use xlink:href="#DejaVuSans-35" x="210.791016" />
     <use xlink:href="#DejaVuSans-33" x="274.414062" />
    </g>
    
    <g style="fill: #444443" transform="translate(26.11812 100.199824) scale(0.09 -0.09)">
     <defs>
      <path id="DejaVuSans-70" d="M 1159 525  L 1159 -1331  L 581 -1331  L 581 3500  L 1159 3500  L 1159 2969  Q 1341 3281 1617 3432  Q 1894 3584 2278 3584  Q 2916 3584 3314 3078  Q 3713 2572 3713 1747  Q 3713 922 3314 415  Q 2916 -91 2278 -91  Q 1894 -91 1617 61  Q 1341 213 1159 525  z M 3116 1747  Q 3116 2381 2855 2742  Q 2594 3103 2138 3103  Q 1681 3103 1420 2742  Q 1159 2381 1159 1747  Q 1159 1113 1420 752  Q 1681 391 2138 391  Q 2594 391 2855 752  Q 3116 1113 3116 1747  z " transform="scale(0.015625)" />
      <path id="DejaVuSans-65" d="M 3597 1894  L 3597 1613  L 953 1613  Q 991 1019 1311 708  Q 1631 397 2203 397  Q 2534 397 2845 478  Q 3156 559 3463 722  L 3463 178  Q 3153 47 2828 -22  Q 2503 -91 2169 -91  Q 1331 -91 842 396  Q 353 884 353 1716  Q 353 2575 817 3079  Q 1281 3584 2069 3584  Q 2775 3584 3186 3129  Q 3597 2675 3597 1894  z M 3022 2063  Q 3016 2534 2758 2815  Q 2500 3097 2075 3097  Q 1594 3097 1305 2825  Q 1016 2553 972 2059  L 3022 2063  z " transform="scale(0.015625)" />
      <path id="DejaVuSans-72" d="M 2631 2963  Q 2534 3019 2420 3045  Q 2306 3072 2169 3072  Q 1681 3072 1420 2755  Q 1159 2438 1159 1844  L 1159 0  L 581 0  L 581 3500  L 1159 3500  L 1159 2956  Q 1341 3275 1631 3429  Q 1922 3584 2338 3584  Q 2397 3584 2469 3576  Q 2541 3569 2628 3553  L 2631 2963  z " transform="scale(0.015625)" />
      <path id="DejaVuSans-69" d="M 603 3500  L 1178 3500  L 1178 0  L 603 0  L 603 3500  z M 603 4863  L 1178 4863  L 1178 4134  L 603 4134  L 603 4863  z " transform="scale(0.015625)" />
      <path id="DejaVuSans-73" d="M 2834 3397  L 2834 2853  Q 2591 2978 2328 3040  Q 2066 3103 1784 3103  Q 1356 3103 1142 2972  Q 928 2841 928 2578  Q 928 2378 1081 2264  Q 1234 2150 1697 2047  L 1894 2003  Q 2506 1872 2764 1633  Q 3022 1394 3022 966  Q 3022 478 2636 193  Q 2250 -91 1575 -91  Q 1294 -91 989 -36  Q 684 19 347 128  L 347 722  Q 666 556 975 473  Q 1284 391 1588 391  Q 1994 391 2212 530  Q 2431 669 2431 922  Q 2431 1156 2273 1281  Q 2116 1406 1581 1522  L 1381 1569  Q 847 1681 609 1914  Q 372 2147 372 2553  Q 372 3047 722 3315  Q 1072 3584 1716 3584  Q 2034 3584 2315 3537  Q 2597 3491 2834 3397  z " transform="scale(0.015625)" />
      <path id="DejaVuSans-68" d="M 3513 2113  L 3513 0  L 2938 0  L 2938 2094  Q 2938 2591 2744 2837  Q 2550 3084 2163 3084  Q 1697 3084 1428 2787  Q 1159 2491 1159 1978  L 1159 0  L 581 0  L 581 4863  L 1159 4863  L 1159 2956  Q 1366 3272 1645 3428  Q 1925 3584 2291 3584  Q 2894 3584 3203 3211  Q 3513 2838 3513 2113  z " transform="scale(0.015625)" />
     </defs>
     <use xlink:href="#DejaVuSans-70" />
     <use xlink:href="#DejaVuSans-65" x="63.476562" />
     <use xlink:href="#DejaVuSans-72" x="125" />
     <use xlink:href="#DejaVuSans-69" x="166.113281" />
     <use xlink:href="#DejaVuSans-73" x="193.896484" />
     <use xlink:href="#DejaVuSans-68" x="245.996094" />
    </g>
   </g>
  </g>
 </g>
</svg></g>

<g id="edge5" class="edge">
<title>node4-&gt;leaf6</title>
<path fill="none" stroke="#444443" stroke-width="0.3" d="M281.81,-101.18C283.42,-96.95 285.11,-92.51 286.82,-88.04" />
<polygon fill="#444443" stroke="#444443" stroke-width="0.3" points="288.1,-88.6 288.22,-84.36 285.49,-87.6 288.1,-88.6" />
</g>

<g id="node3" class="node">
<title>node0</title>
<svg width="154px" height="88px" viewBox="0 0 206.41 118.01625" version="1.1" preserveAspectRatio="xMinYMin meet" x="105" y="-283">
 <metadata>
  <rdf:RDF>
   <ns2:Work>
    <dc:type rdf:resource="http://purl.org/dc/dcmitype/StillImage" />
    <dc:date>2024-10-28T18:56:53.539915</dc:date>
    <dc:format>image/svg+xml</dc:format>
    <dc:creator>
     <ns2:Agent>
      <dc:title>Matplotlib v3.9.2, https://matplotlib.org/</dc:title>
     </ns2:Agent>
    </dc:creator>
   </ns2:Work>
  </rdf:RDF>
 </metadata>
 <defs>
  <style type="text/css">*{stroke-linejoin: round; stroke-linecap: butt}</style>
 </defs>
 <g id="figure_1">
  <g id="patch_1">
   <path d="M 0 118.01625  L 206.41 118.01625  L 206.41 0  L 0 0  z " style="fill: #ffffff" />
  </g>
  <g id="axes_1">
   <g id="patch_2">
    <path d="M 22.27 83.16  L 206.41 83.16  L 206.41 -0  L 22.27 -0  z " style="fill: #ffffff" />
   </g>
   <g id="patch_3">
    <path d="M 38.282174 83.16  L 46.288261 83.16  L 46.288261 72.041802  L 38.282174 72.041802  z " clip-path="url(#pee615dc016)" style="fill: #fefebb; stroke: #444443; stroke-width: 0.5; stroke-linejoin: miter" />
   </g>
   <g id="patch_4">
    <path d="M 46.288261 83.16  L 54.294348 83.16  L 54.294348 83.16  L 46.288261 83.16  z " clip-path="url(#pee615dc016)" style="fill: #fefebb; stroke: #444443; stroke-width: 0.5; stroke-linejoin: miter" />
   </g>
   <g id="patch_5">
    <path d="M 54.294348 83.16  L 62.300435 83.16  L 62.300435 83.16  L 54.294348 83.16  z " clip-path="url(#pee615dc016)" style="fill: #fefebb; stroke: #444443; stroke-width: 0.5; stroke-linejoin: miter" />
   </g>
   <g id="patch_6">
    <path d="M 62.300435 83.16  L 70.306522 83.16  L 70.306522 83.16  L 62.300435 83.16  z " clip-path="url(#pee615dc016)" style="fill: #fefebb; stroke: #444443; stroke-width: 0.5; stroke-linejoin: miter" />
   </g>
   <g id="patch_7">
    <path d="M 70.306522 83.16  L 78.312609 83.16  L 78.312609 83.16  L 70.306522 83.16  z " clip-path="url(#pee615dc016)" style="fill: #fefebb; stroke: #444443; stroke-width: 0.5; stroke-linejoin: miter" />
   </g>
   <g id="patch_8">
    <path d="M 78.312609 83.16  L 86.318696 83.16  L 86.318696 83.16  L 78.312609 83.16  z " clip-path="url(#pee615dc016)" style="fill: #fefebb; stroke: #444443; stroke-width: 0.5; stroke-linejoin: miter" />
   </g>
   <g id="patch_9">
    <path d="M 86.318696 83.16  L 94.324783 83.16  L 94.324783 83.16  L 86.318696 83.16  z " clip-path="url(#pee615dc016)" style="fill: #fefebb; stroke: #444443; stroke-width: 0.5; stroke-linejoin: miter" />
   </g>
   <g id="patch_10">
    <path d="M 94.324783 83.16  L 102.33087 83.16  L 102.33087 83.16  L 94.324783 83.16  z " clip-path="url(#pee615dc016)" style="fill: #fefebb; stroke: #444443; stroke-width: 0.5; stroke-linejoin: miter" />
   </g>
   <g id="patch_11">
    <path d="M 102.33087 83.16  L 110.336957 83.16  L 110.336957 83.16  L 102.33087 83.16  z " clip-path="url(#pee615dc016)" style="fill: #fefebb; stroke: #444443; stroke-width: 0.5; stroke-linejoin: miter" />
   </g>
   <g id="patch_12">
    <path d="M 110.336957 83.16  L 118.343043 83.16  L 118.343043 83.16  L 110.336957 83.16  z " clip-path="url(#pee615dc016)" style="fill: #fefebb; stroke: #444443; stroke-width: 0.5; stroke-linejoin: miter" />
   </g>
   <g id="patch_13">
    <path d="M 118.343043 83.16  L 126.34913 83.16  L 126.34913 83.16  L 118.343043 83.16  z " clip-path="url(#pee615dc016)" style="fill: #fefebb; stroke: #444443; stroke-width: 0.5; stroke-linejoin: miter" />
   </g>
   <g id="patch_14">
    <path d="M 126.34913 83.16  L 134.355217 83.16  L 134.355217 83.16  L 126.34913 83.16  z " clip-path="url(#pee615dc016)" style="fill: #fefebb; stroke: #444443; stroke-width: 0.5; stroke-linejoin: miter" />
   </g>
   <g id="patch_15">
    <path d="M 134.355217 83.16  L 142.361304 83.16  L 142.361304 83.16  L 134.355217 83.16  z " clip-path="url(#pee615dc016)" style="fill: #fefebb; stroke: #444443; stroke-width: 0.5; stroke-linejoin: miter" />
   </g>
   <g id="patch_16">
    <path d="M 142.361304 83.16  L 150.367391 83.16  L 150.367391 83.16  L 142.361304 83.16  z " clip-path="url(#pee615dc016)" style="fill: #fefebb; stroke: #444443; stroke-width: 0.5; stroke-linejoin: miter" />
   </g>
   <g id="patch_17">
    <path d="M 150.367391 83.16  L 158.373478 83.16  L 158.373478 83.16  L 150.367391 83.16  z " clip-path="url(#pee615dc016)" style="fill: #fefebb; stroke: #444443; stroke-width: 0.5; stroke-linejoin: miter" />
   </g>
   <g id="patch_18">
    <path d="M 158.373478 83.16  L 166.379565 83.16  L 166.379565 83.16  L 158.373478 83.16  z " clip-path="url(#pee615dc016)" style="fill: #fefebb; stroke: #444443; stroke-width: 0.5; stroke-linejoin: miter" />
   </g>
   <g id="patch_19">
    <path d="M 166.379565 83.16  L 174.385652 83.16  L 174.385652 83.16  L 166.379565 83.16  z " clip-path="url(#pee615dc016)" style="fill: #fefebb; stroke: #444443; stroke-width: 0.5; stroke-linejoin: miter" />
   </g>
   <g id="patch_20">
    <path d="M 174.385652 83.16  L 182.391739 83.16  L 182.391739 83.16  L 174.385652 83.16  z " clip-path="url(#pee615dc016)" style="fill: #fefebb; stroke: #444443; stroke-width: 0.5; stroke-linejoin: miter" />
   </g>
   <g id="patch_21">
    <path d="M 182.391739 83.16  L 190.397826 83.16  L 190.397826 18.921525  L 182.391739 18.921525  z " clip-path="url(#pee615dc016)" style="fill: #fefebb; stroke: #444443; stroke-width: 0.5; stroke-linejoin: miter" />
   </g>
   <g id="patch_22">
    <path d="M 38.282174 72.041802  L 46.288261 72.041802  L 46.288261 40.059827  L 38.282174 40.059827  z " clip-path="url(#pee615dc016)" style="fill: #a1dab4; stroke: #444443; stroke-width: 0.5; stroke-linejoin: miter" />
   </g>
   <g id="patch_23">
    <path d="M 46.288261 83.16  L 54.294348 83.16  L 54.294348 83.16  L 46.288261 83.16  z " clip-path="url(#pee615dc016)" style="fill: #a1dab4; stroke: #444443; stroke-width: 0.5; stroke-linejoin: miter" />
   </g>
   <g id="patch_24">
    <path d="M 54.294348 83.16  L 62.300435 83.16  L 62.300435 83.16  L 54.294348 83.16  z " clip-path="url(#pee615dc016)" style="fill: #a1dab4; stroke: #444443; stroke-width: 0.5; stroke-linejoin: miter" />
   </g>
   <g id="patch_25">
    <path d="M 62.300435 83.16  L 70.306522 83.16  L 70.306522 83.16  L 62.300435 83.16  z " clip-path="url(#pee615dc016)" style="fill: #a1dab4; stroke: #444443; stroke-width: 0.5; stroke-linejoin: miter" />
   </g>
   <g id="patch_26">
    <path d="M 70.306522 83.16  L 78.312609 83.16  L 78.312609 83.16  L 70.306522 83.16  z " clip-path="url(#pee615dc016)" style="fill: #a1dab4; stroke: #444443; stroke-width: 0.5; stroke-linejoin: miter" />
   </g>
   <g id="patch_27">
    <path d="M 78.312609 83.16  L 86.318696 83.16  L 86.318696 83.16  L 78.312609 83.16  z " clip-path="url(#pee615dc016)" style="fill: #a1dab4; stroke: #444443; stroke-width: 0.5; stroke-linejoin: miter" />
   </g>
   <g id="patch_28">
    <path d="M 86.318696 83.16  L 94.324783 83.16  L 94.324783 83.16  L 86.318696 83.16  z " clip-path="url(#pee615dc016)" style="fill: #a1dab4; stroke: #444443; stroke-width: 0.5; stroke-linejoin: miter" />
   </g>
   <g id="patch_29">
    <path d="M 94.324783 83.16  L 102.33087 83.16  L 102.33087 83.16  L 94.324783 83.16  z " clip-path="url(#pee615dc016)" style="fill: #a1dab4; stroke: #444443; stroke-width: 0.5; stroke-linejoin: miter" />
   </g>
   <g id="patch_30">
    <path d="M 102.33087 83.16  L 110.336957 83.16  L 110.336957 83.16  L 102.33087 83.16  z " clip-path="url(#pee615dc016)" style="fill: #a1dab4; stroke: #444443; stroke-width: 0.5; stroke-linejoin: miter" />
   </g>
   <g id="patch_31">
    <path d="M 110.336957 83.16  L 118.343043 83.16  L 118.343043 83.16  L 110.336957 83.16  z " clip-path="url(#pee615dc016)" style="fill: #a1dab4; stroke: #444443; stroke-width: 0.5; stroke-linejoin: miter" />
   </g>
   <g id="patch_32">
    <path d="M 118.343043 83.16  L 126.34913 83.16  L 126.34913 83.16  L 118.343043 83.16  z " clip-path="url(#pee615dc016)" style="fill: #a1dab4; stroke: #444443; stroke-width: 0.5; stroke-linejoin: miter" />
   </g>
   <g id="patch_33">
    <path d="M 126.34913 83.16  L 134.355217 83.16  L 134.355217 83.16  L 126.34913 83.16  z " clip-path="url(#pee615dc016)" style="fill: #a1dab4; stroke: #444443; stroke-width: 0.5; stroke-linejoin: miter" />
   </g>
   <g id="patch_34">
    <path d="M 134.355217 83.16  L 142.361304 83.16  L 142.361304 83.16  L 134.355217 83.16  z " clip-path="url(#pee615dc016)" style="fill: #a1dab4; stroke: #444443; stroke-width: 0.5; stroke-linejoin: miter" />
   </g>
   <g id="patch_35">
    <path d="M 142.361304 83.16  L 150.367391 83.16  L 150.367391 83.16  L 142.361304 83.16  z " clip-path="url(#pee615dc016)" style="fill: #a1dab4; stroke: #444443; stroke-width: 0.5; stroke-linejoin: miter" />
   </g>
   <g id="patch_36">
    <path d="M 150.367391 83.16  L 158.373478 83.16  L 158.373478 83.16  L 150.367391 83.16  z " clip-path="url(#pee615dc016)" style="fill: #a1dab4; stroke: #444443; stroke-width: 0.5; stroke-linejoin: miter" />
   </g>
   <g id="patch_37">
    <path d="M 158.373478 83.16  L 166.379565 83.16  L 166.379565 83.16  L 158.373478 83.16  z " clip-path="url(#pee615dc016)" style="fill: #a1dab4; stroke: #444443; stroke-width: 0.5; stroke-linejoin: miter" />
   </g>
   <g id="patch_38">
    <path d="M 166.379565 83.16  L 174.385652 83.16  L 174.385652 83.16  L 166.379565 83.16  z " clip-path="url(#pee615dc016)" style="fill: #a1dab4; stroke: #444443; stroke-width: 0.5; stroke-linejoin: miter" />
   </g>
   <g id="patch_39">
    <path d="M 174.385652 83.16  L 182.391739 83.16  L 182.391739 83.16  L 174.385652 83.16  z " clip-path="url(#pee615dc016)" style="fill: #a1dab4; stroke: #444443; stroke-width: 0.5; stroke-linejoin: miter" />
   </g>
   <g id="patch_40">
    <path d="M 182.391739 18.921525  L 190.397826 18.921525  L 190.397826 3.96  L 182.391739 3.96  z " clip-path="url(#pee615dc016)" style="fill: #a1dab4; stroke: #444443; stroke-width: 0.5; stroke-linejoin: miter" />
   </g>
   <g id="patch_41">
    <path d="M 114.34 83.9916  L 111.02548 92.3076  L 117.65452 92.3076  z " style="fill: #444443" />
   </g>
   <g id="matplotlib.axis_1">
    <g id="xtick_1">
     <g id="line2d_1">
      <defs>
       <path id="mee1dfe84cf" d="M 0 0  L 0 3.5  " style="stroke: #000000; stroke-width: 0.3" />
      </defs>
      <g>
       <use xlink:href="#mee1dfe84cf" x="38.282174" y="83.16" style="stroke: #000000; stroke-width: 0.3" />
      </g>
     </g>
     <g id="text_1">
      
      <g style="fill: #444443" transform="translate(31.920924 100.73875) scale(0.08 -0.08)">
       <defs>
        <path id="DejaVuSans-30" d="M 2034 4250  Q 1547 4250 1301 3770  Q 1056 3291 1056 2328  Q 1056 1369 1301 889  Q 1547 409 2034 409  Q 2525 409 2770 889  Q 3016 1369 3016 2328  Q 3016 3291 2770 3770  Q 2525 4250 2034 4250  z M 2034 4750  Q 2819 4750 3233 4129  Q 3647 3509 3647 2328  Q 3647 1150 3233 529  Q 2819 -91 2034 -91  Q 1250 -91 836 529  Q 422 1150 422 2328  Q 422 3509 836 4129  Q 1250 4750 2034 4750  z " transform="scale(0.015625)" />
        <path id="DejaVuSans-2e" d="M 684 794  L 1344 794  L 1344 0  L 684 0  L 684 794  z " transform="scale(0.015625)" />
       </defs>
       <use xlink:href="#DejaVuSans-30" />
       <use xlink:href="#DejaVuSans-2e" x="63.623047" />
       <use xlink:href="#DejaVuSans-30" x="95.410156" />
      </g>
     </g>
    </g>
    <g id="xtick_2">
     <g id="line2d_2">
      <g>
       <use xlink:href="#mee1dfe84cf" x="114.34" y="83.16" style="stroke: #000000; stroke-width: 0.3" />
      </g>
     </g>
     <g id="text_2">
      
      <g style="fill: #444443" transform="translate(107.97875 100.73875) scale(0.08 -0.08)">
       <defs>
        <path id="DejaVuSans-35" d="M 691 4666  L 3169 4666  L 3169 4134  L 1269 4134  L 1269 2991  Q 1406 3038 1543 3061  Q 1681 3084 1819 3084  Q 2600 3084 3056 2656  Q 3513 2228 3513 1497  Q 3513 744 3044 326  Q 2575 -91 1722 -91  Q 1428 -91 1123 -41  Q 819 9 494 109  L 494 744  Q 775 591 1075 516  Q 1375 441 1709 441  Q 2250 441 2565 725  Q 2881 1009 2881 1497  Q 2881 1984 2565 2268  Q 2250 2553 1709 2553  Q 1456 2553 1204 2497  Q 953 2441 691 2322  L 691 4666  z " transform="scale(0.015625)" />
       </defs>
       <use xlink:href="#DejaVuSans-30" />
       <use xlink:href="#DejaVuSans-2e" x="63.623047" />
       <use xlink:href="#DejaVuSans-35" x="95.410156" />
      </g>
     </g>
    </g>
    <g id="xtick_3">
     <g id="line2d_3">
      <g>
       <use xlink:href="#mee1dfe84cf" x="190.397826" y="83.16" style="stroke: #000000; stroke-width: 0.3" />
      </g>
     </g>
     <g id="text_3">
      
      <g style="fill: #444443" transform="translate(184.036576 100.73875) scale(0.08 -0.08)">
       <defs>
        <path id="DejaVuSans-31" d="M 794 531  L 1825 531  L 1825 4091  L 703 3866  L 703 4441  L 1819 4666  L 2450 4666  L 2450 531  L 3481 531  L 3481 0  L 794 0  L 794 531  z " transform="scale(0.015625)" />
       </defs>
       <use xlink:href="#DejaVuSans-31" />
       <use xlink:href="#DejaVuSans-2e" x="63.623047" />
       <use xlink:href="#DejaVuSans-30" x="95.410156" />
      </g>
     </g>
    </g>
    <g id="text_4">
     
     <g style="fill: #444443" transform="translate(103.392812 115.520625) scale(0.12 -0.12)">
      <defs>
       <path id="DejaVuSans-53" d="M 3425 4513  L 3425 3897  Q 3066 4069 2747 4153  Q 2428 4238 2131 4238  Q 1616 4238 1336 4038  Q 1056 3838 1056 3469  Q 1056 3159 1242 3001  Q 1428 2844 1947 2747  L 2328 2669  Q 3034 2534 3370 2195  Q 3706 1856 3706 1288  Q 3706 609 3251 259  Q 2797 -91 1919 -91  Q 1588 -91 1214 -16  Q 841 59 441 206  L 441 856  Q 825 641 1194 531  Q 1563 422 1919 422  Q 2459 422 2753 634  Q 3047 847 3047 1241  Q 3047 1584 2836 1778  Q 2625 1972 2144 2069  L 1759 2144  Q 1053 2284 737 2584  Q 422 2884 422 3419  Q 422 4038 858 4394  Q 1294 4750 2059 4750  Q 2388 4750 2728 4690  Q 3069 4631 3425 4513  z " transform="scale(0.015625)" />
       <path id="DejaVuSans-65" d="M 3597 1894  L 3597 1613  L 953 1613  Q 991 1019 1311 708  Q 1631 397 2203 397  Q 2534 397 2845 478  Q 3156 559 3463 722  L 3463 178  Q 3153 47 2828 -22  Q 2503 -91 2169 -91  Q 1331 -91 842 396  Q 353 884 353 1716  Q 353 2575 817 3079  Q 1281 3584 2069 3584  Q 2775 3584 3186 3129  Q 3597 2675 3597 1894  z M 3022 2063  Q 3016 2534 2758 2815  Q 2500 3097 2075 3097  Q 1594 3097 1305 2825  Q 1016 2553 972 2059  L 3022 2063  z " transform="scale(0.015625)" />
       <path id="DejaVuSans-78" d="M 3513 3500  L 2247 1797  L 3578 0  L 2900 0  L 1881 1375  L 863 0  L 184 0  L 1544 1831  L 300 3500  L 978 3500  L 1906 2253  L 2834 3500  L 3513 3500  z " transform="scale(0.015625)" />
      </defs>
      <use xlink:href="#DejaVuSans-53" />
      <use xlink:href="#DejaVuSans-65" x="63.476562" />
      <use xlink:href="#DejaVuSans-78" x="123.25" />
     </g>
    </g>
   </g>
   <g id="matplotlib.axis_2">
    <g id="ytick_1">
     <g id="line2d_4">
      <defs>
       <path id="m04d782536a" d="M 0 0  L -3.5 0  " style="stroke: #000000; stroke-width: 0.3" />
      </defs>
      <g>
       <use xlink:href="#m04d782536a" x="22.27" y="83.16" style="stroke: #000000; stroke-width: 0.3" />
      </g>
     </g>
     <g id="text_5">
      
      <g style="fill: #444443" transform="translate(10.18 86.199375) scale(0.08 -0.08)">
       <use xlink:href="#DejaVuSans-30" />
      </g>
     </g>
    </g>
    <g id="ytick_2">
     <g id="line2d_5">
      <g>
       <use xlink:href="#m04d782536a" x="22.27" y="3.96" style="stroke: #000000; stroke-width: 0.3" />
      </g>
     </g>
     <g id="text_6">
      
      <g style="fill: #444443" transform="translate(0 6.999375) scale(0.08 -0.08)">
       <defs>
        <path id="DejaVuSans-37" d="M 525 4666  L 3525 4666  L 3525 4397  L 1831 0  L 1172 0  L 2766 4134  L 525 4134  L 525 4666  z " transform="scale(0.015625)" />
       </defs>
       <use xlink:href="#DejaVuSans-35" />
       <use xlink:href="#DejaVuSans-37" x="63.623047" />
       <use xlink:href="#DejaVuSans-37" x="127.246094" />
      </g>
     </g>
    </g>
   </g>
   <g id="patch_42">
    <path d="M 22.27 83.16  L 22.27 0  " style="fill: none; stroke: #444443; stroke-width: 0.3; stroke-linejoin: miter; stroke-linecap: square" />
   </g>
   <g id="patch_43">
    <path d="M 22.27 83.16  L 206.41 83.16  " style="fill: none; stroke: #444443; stroke-width: 0.3; stroke-linejoin: miter; stroke-linecap: square" />
   </g>
  </g>
 </g>
 <defs>
  <clipPath id="pee615dc016">
   <rect x="22.27" y="-0" width="184.14" height="83.16" />
  </clipPath>
 </defs>
</svg></g>

<g id="edge7" class="edge">
<title>node0-&gt;node1</title>
<path fill="none" stroke="#444443" stroke-width="0.3" d="M143.84,-191.29C135.63,-181.23 127.16,-170.86 119.62,-161.64" />
<polygon fill="#444443" stroke="#444443" stroke-width="0.3" points="120.79,-160.86 117.18,-158.65 118.62,-162.63 120.79,-160.86" />
<text text-anchor="start" x="135.89" y="-169.7" font-family="Arial" font-size="14.00" fill="#444443"> &#160;&#8804;</text>
</g>

<g id="edge8" class="edge">
<title>node0-&gt;node4</title>
<path fill="none" stroke="#444443" stroke-width="0.3" d="M221.04,-191.29C229.02,-181.73 237.25,-171.89 244.66,-163.02" />
<polygon fill="#444443" stroke="#444443" stroke-width="0.3" points="245.57,-164.11 247.06,-160.14 243.42,-162.32 245.57,-164.11" />
<text text-anchor="start" x="239.67" y="-169.7" font-family="Arial" font-size="14.00" fill="#444443"> &#160;&gt;</text>
</g>



<g id="node8" class="node">
<title>legend</title>
<polygon fill="none" stroke="black" stroke-width="0" points="334.16,-263.66 269.84,-263.66 269.84,-214.34 334.16,-214.34 334.16,-263.66" />
<svg width="60px" height="45px" viewBox="0 0 80.926563 60.034375" version="1.1" preserveAspectRatio="xMinYMin meet" x="272" y="-261.5">
 <metadata>
  <rdf:RDF>
   <ns2:Work>
    <dc:type rdf:resource="http://purl.org/dc/dcmitype/StillImage" />
    <dc:date>2024-10-28T18:56:52.942291</dc:date>
    <dc:format>image/svg+xml</dc:format>
    <dc:creator>
     <ns2:Agent>
      <dc:title>Matplotlib v3.9.2, https://matplotlib.org/</dc:title>
     </ns2:Agent>
    </dc:creator>
   </ns2:Work>
  </rdf:RDF>
 </metadata>
 <defs>
  <style type="text/css">*{stroke-linejoin: round; stroke-linecap: butt}</style>
 </defs>
 <g id="figure_1">
  <g id="patch_1">
   <path d="M 0 60.034375  L 80.926563 60.034375  L 80.926563 0  L 0 0  z " style="fill: #ffffff" />
  </g>
  <g id="axes_1">
   <g id="legend_1">
    <g id="patch_2">
     <path d="M 2 60.034375  L 73.926563 60.034375  Q 75.926563 60.034375 75.926563 58.034375  L 75.926563 7  Q 75.926563 5 73.926563 5  L 2 5  Q 0 5 0 7  L 0 58.034375  Q 0 60.034375 2 60.034375  z " style="fill: #ffffff; opacity: 0.8; stroke: #444443; stroke-width: 0.5; stroke-linejoin: miter" />
    </g>
    <g id="text_1">
     
     <g style="fill: #444443" transform="translate(13.134375 20.598438) scale(0.1 -0.1)">
      <defs>
       <path id="DejaVuSans-Bold-53" d="M 3834 4519  L 3834 3531  Q 3450 3703 3084 3790  Q 2719 3878 2394 3878  Q 1963 3878 1756 3759  Q 1550 3641 1550 3391  Q 1550 3203 1689 3098  Q 1828 2994 2194 2919  L 2706 2816  Q 3484 2659 3812 2340  Q 4141 2022 4141 1434  Q 4141 663 3683 286  Q 3225 -91 2284 -91  Q 1841 -91 1394 -6  Q 947 78 500 244  L 500 1259  Q 947 1022 1364 901  Q 1781 781 2169 781  Q 2563 781 2772 912  Q 2981 1044 2981 1288  Q 2981 1506 2839 1625  Q 2697 1744 2272 1838  L 1806 1941  Q 1106 2091 782 2419  Q 459 2747 459 3303  Q 459 4000 909 4375  Q 1359 4750 2203 4750  Q 2588 4750 2994 4692  Q 3400 4634 3834 4519  z " transform="scale(0.015625)" />
       <path id="DejaVuSans-Bold-75" d="M 500 1363  L 500 3500  L 1625 3500  L 1625 3150  Q 1625 2866 1622 2436  Q 1619 2006 1619 1863  Q 1619 1441 1641 1255  Q 1663 1069 1716 984  Q 1784 875 1895 815  Q 2006 756 2150 756  Q 2500 756 2700 1025  Q 2900 1294 2900 1772  L 2900 3500  L 4019 3500  L 4019 0  L 2900 0  L 2900 506  Q 2647 200 2364 54  Q 2081 -91 1741 -91  Q 1134 -91 817 281  Q 500 653 500 1363  z " transform="scale(0.015625)" />
       <path id="DejaVuSans-Bold-72" d="M 3138 2547  Q 2991 2616 2845 2648  Q 2700 2681 2553 2681  Q 2122 2681 1889 2404  Q 1656 2128 1656 1613  L 1656 0  L 538 0  L 538 3500  L 1656 3500  L 1656 2925  Q 1872 3269 2151 3426  Q 2431 3584 2822 3584  Q 2878 3584 2943 3579  Q 3009 3575 3134 3559  L 3138 2547  z " transform="scale(0.015625)" />
       <path id="DejaVuSans-Bold-76" d="M 97 3500  L 1216 3500  L 2088 1081  L 2956 3500  L 4078 3500  L 2700 0  L 1472 0  L 97 3500  z " transform="scale(0.015625)" />
       <path id="DejaVuSans-Bold-69" d="M 538 3500  L 1656 3500  L 1656 0  L 538 0  L 538 3500  z M 538 4863  L 1656 4863  L 1656 3950  L 538 3950  L 538 4863  z " transform="scale(0.015625)" />
       <path id="DejaVuSans-Bold-65" d="M 4031 1759  L 4031 1441  L 1416 1441  Q 1456 1047 1700 850  Q 1944 653 2381 653  Q 2734 653 3104 758  Q 3475 863 3866 1075  L 3866 213  Q 3469 63 3072 -14  Q 2675 -91 2278 -91  Q 1328 -91 801 392  Q 275 875 275 1747  Q 275 2603 792 3093  Q 1309 3584 2216 3584  Q 3041 3584 3536 3087  Q 4031 2591 4031 1759  z M 2881 2131  Q 2881 2450 2695 2645  Q 2509 2841 2209 2841  Q 1884 2841 1681 2658  Q 1478 2475 1428 2131  L 2881 2131  z " transform="scale(0.015625)" />
       <path id="DejaVuSans-Bold-64" d="M 2919 2988  L 2919 4863  L 4044 4863  L 4044 0  L 2919 0  L 2919 506  Q 2688 197 2409 53  Q 2131 -91 1766 -91  Q 1119 -91 703 423  Q 288 938 288 1747  Q 288 2556 703 3070  Q 1119 3584 1766 3584  Q 2128 3584 2408 3439  Q 2688 3294 2919 2988  z M 2181 722  Q 2541 722 2730 984  Q 2919 1247 2919 1747  Q 2919 2247 2730 2509  Q 2541 2772 2181 2772  Q 1825 2772 1636 2509  Q 1447 2247 1447 1747  Q 1447 1247 1636 984  Q 1825 722 2181 722  z " transform="scale(0.015625)" />
      </defs>
      <use xlink:href="#DejaVuSans-Bold-53" />
      <use xlink:href="#DejaVuSans-Bold-75" x="72.021484" />
      <use xlink:href="#DejaVuSans-Bold-72" x="143.212891" />
      <use xlink:href="#DejaVuSans-Bold-76" x="192.529297" />
      <use xlink:href="#DejaVuSans-Bold-69" x="257.714844" />
      <use xlink:href="#DejaVuSans-Bold-76" x="291.992188" />
      <use xlink:href="#DejaVuSans-Bold-65" x="357.177734" />
      <use xlink:href="#DejaVuSans-Bold-64" x="425" />
     </g>
    </g>
    <g id="patch_3">
     <path d="M 8 35.276563  L 28 35.276563  L 28 28.276563  L 8 28.276563  z " style="fill: #fefebb; stroke: #444443; stroke-width: 0.4; stroke-linejoin: miter" />
    </g>
    <g id="text_2">
     
     <g style="fill: #444443" transform="translate(31.5 35.276563) scale(0.1 -0.1)">
      <defs>
       <path id="DejaVuSans-70" d="M 1159 525  L 1159 -1331  L 581 -1331  L 581 3500  L 1159 3500  L 1159 2969  Q 1341 3281 1617 3432  Q 1894 3584 2278 3584  Q 2916 3584 3314 3078  Q 3713 2572 3713 1747  Q 3713 922 3314 415  Q 2916 -91 2278 -91  Q 1894 -91 1617 61  Q 1341 213 1159 525  z M 3116 1747  Q 3116 2381 2855 2742  Q 2594 3103 2138 3103  Q 1681 3103 1420 2742  Q 1159 2381 1159 1747  Q 1159 1113 1420 752  Q 1681 391 2138 391  Q 2594 391 2855 752  Q 3116 1113 3116 1747  z " transform="scale(0.015625)" />
       <path id="DejaVuSans-65" d="M 3597 1894  L 3597 1613  L 953 1613  Q 991 1019 1311 708  Q 1631 397 2203 397  Q 2534 397 2845 478  Q 3156 559 3463 722  L 3463 178  Q 3153 47 2828 -22  Q 2503 -91 2169 -91  Q 1331 -91 842 396  Q 353 884 353 1716  Q 353 2575 817 3079  Q 1281 3584 2069 3584  Q 2775 3584 3186 3129  Q 3597 2675 3597 1894  z M 3022 2063  Q 3016 2534 2758 2815  Q 2500 3097 2075 3097  Q 1594 3097 1305 2825  Q 1016 2553 972 2059  L 3022 2063  z " transform="scale(0.015625)" />
       <path id="DejaVuSans-72" d="M 2631 2963  Q 2534 3019 2420 3045  Q 2306 3072 2169 3072  Q 1681 3072 1420 2755  Q 1159 2438 1159 1844  L 1159 0  L 581 0  L 581 3500  L 1159 3500  L 1159 2956  Q 1341 3275 1631 3429  Q 1922 3584 2338 3584  Q 2397 3584 2469 3576  Q 2541 3569 2628 3553  L 2631 2963  z " transform="scale(0.015625)" />
       <path id="DejaVuSans-69" d="M 603 3500  L 1178 3500  L 1178 0  L 603 0  L 603 3500  z M 603 4863  L 1178 4863  L 1178 4134  L 603 4134  L 603 4863  z " transform="scale(0.015625)" />
       <path id="DejaVuSans-73" d="M 2834 3397  L 2834 2853  Q 2591 2978 2328 3040  Q 2066 3103 1784 3103  Q 1356 3103 1142 2972  Q 928 2841 928 2578  Q 928 2378 1081 2264  Q 1234 2150 1697 2047  L 1894 2003  Q 2506 1872 2764 1633  Q 3022 1394 3022 966  Q 3022 478 2636 193  Q 2250 -91 1575 -91  Q 1294 -91 989 -36  Q 684 19 347 128  L 347 722  Q 666 556 975 473  Q 1284 391 1588 391  Q 1994 391 2212 530  Q 2431 669 2431 922  Q 2431 1156 2273 1281  Q 2116 1406 1581 1522  L 1381 1569  Q 847 1681 609 1914  Q 372 2147 372 2553  Q 372 3047 722 3315  Q 1072 3584 1716 3584  Q 2034 3584 2315 3537  Q 2597 3491 2834 3397  z " transform="scale(0.015625)" />
       <path id="DejaVuSans-68" d="M 3513 2113  L 3513 0  L 2938 0  L 2938 2094  Q 2938 2591 2744 2837  Q 2550 3084 2163 3084  Q 1697 3084 1428 2787  Q 1159 2491 1159 1978  L 1159 0  L 581 0  L 581 4863  L 1159 4863  L 1159 2956  Q 1366 3272 1645 3428  Q 1925 3584 2291 3584  Q 2894 3584 3203 3211  Q 3513 2838 3513 2113  z " transform="scale(0.015625)" />
      </defs>
      <use xlink:href="#DejaVuSans-70" />
      <use xlink:href="#DejaVuSans-65" x="63.476562" />
      <use xlink:href="#DejaVuSans-72" x="125" />
      <use xlink:href="#DejaVuSans-69" x="166.113281" />
      <use xlink:href="#DejaVuSans-73" x="193.896484" />
      <use xlink:href="#DejaVuSans-68" x="245.996094" />
     </g>
    </g>
    <g id="patch_4">
     <path d="M 8 49.954688  L 28 49.954688  L 28 42.954688  L 8 42.954688  z " style="fill: #a1dab4; stroke: #444443; stroke-width: 0.4; stroke-linejoin: miter" />
    </g>
    <g id="text_3">
     
     <g style="fill: #444443" transform="translate(31.5 49.954688) scale(0.1 -0.1)">
      <defs>
       <path id="DejaVuSans-75" d="M 544 1381  L 544 3500  L 1119 3500  L 1119 1403  Q 1119 906 1312 657  Q 1506 409 1894 409  Q 2359 409 2629 706  Q 2900 1003 2900 1516  L 2900 3500  L 3475 3500  L 3475 0  L 2900 0  L 2900 538  Q 2691 219 2414 64  Q 2138 -91 1772 -91  Q 1169 -91 856 284  Q 544 659 544 1381  z M 1991 3584  L 1991 3584  z " transform="scale(0.015625)" />
       <path id="DejaVuSans-76" d="M 191 3500  L 800 3500  L 1894 563  L 2988 3500  L 3597 3500  L 2284 0  L 1503 0  L 191 3500  z " transform="scale(0.015625)" />
      </defs>
      <use xlink:href="#DejaVuSans-73" />
      <use xlink:href="#DejaVuSans-75" x="52.099609" />
      <use xlink:href="#DejaVuSans-72" x="115.478516" />
      <use xlink:href="#DejaVuSans-76" x="156.591797" />
      <use xlink:href="#DejaVuSans-69" x="215.771484" />
      <use xlink:href="#DejaVuSans-76" x="243.554688" />
      <use xlink:href="#DejaVuSans-65" x="302.734375" />
     </g>
    </g>
   </g>
  </g>
 </g>
</svg></g>
</g>
</svg>